<svg xmlns="http://www.w3.org/2000/svg" xmlns:xlink="http://www.w3.org/1999/xlink" contentStyleType="text/css" data-diagram-type="SEQUENCE" height="837px" preserveAspectRatio="none" style="width:1708px;height:837px;background:#FFFFFF;" version="1.1" viewBox="0 0 1708 837" width="1708px" zoomAndPan="magnify"><defs/><g><g><title>SearchXUI</title><rect fill="#FFFFFF" height="694.5" style="stroke:#181818;stroke-width:1;" width="10" x="296.5664" y="82.5625"/></g><g><title>SearchXController</title><rect fill="#FFFFFF" height="666.2188" style="stroke:#181818;stroke-width:1;" width="10" x="576.5137" y="119.8438"/></g><g><title>AppSettings</title><rect fill="#FFFFFF" height="65.2813" style="stroke:#181818;stroke-width:1;" width="10" x="1042.8389" y="231.6875"/></g><g><title>AppSettings</title><rect fill="#FFFFFF" height="65.2813" style="stroke:#181818;stroke-width:1;" width="10" x="1042.8389" y="571.9375"/></g><g><title>RepositoryFactory</title><rect fill="#FFFFFF" height="102.5625" style="stroke:#181818;stroke-width:1;" width="10" x="1218.46" y="268.9688"/></g><g><title>RepositoryFactory</title><rect fill="#FFFFFF" height="102.5625" style="stroke:#181818;stroke-width:1;" width="10" x="1218.46" y="609.2188"/></g><g><title>XRepository</title><rect fill="#FFFFFF" height="14" style="stroke:#181818;stroke-width:1;" width="10" x="1394.0029" y="711.7813"/></g><g><title>XCategoryRepository</title><rect fill="#FFFFFF" height="14" style="stroke:#181818;stroke-width:1;" width="10" x="1584.6289" y="371.5313"/></g><g><title>SearchXAction</title><rect fill="#000000" fill-opacity="0.00000" height="751.7813" width="8" x="80.9199" y="43.2813"/><line style="stroke:#181818;stroke-width:0.5;stroke-dasharray:5.0,5.0;" x1="84" x2="84" y1="43.2813" y2="795.0625"/></g><g><title>SearchXUI</title><rect fill="#000000" fill-opacity="0.00000" height="751.7813" width="8" x="297.5664" y="43.2813"/><line style="stroke:#181818;stroke-width:0.5;stroke-dasharray:5.0,5.0;" x1="300.8721" x2="300.8721" y1="43.2813" y2="795.0625"/></g><g><title>SearchXController</title><rect fill="#000000" fill-opacity="0.00000" height="751.7813" width="8" x="577.5137" y="43.2813"/><line style="stroke:#181818;stroke-width:0.5;stroke-dasharray:5.0,5.0;" x1="580.6787" x2="580.6787" y1="43.2813" y2="795.0625"/></g><g><title>PersistenceContext</title><rect fill="#000000" fill-opacity="0.00000" height="751.7813" width="8" x="789.2529" y="43.2813"/><line style="stroke:#181818;stroke-width:0.5;stroke-dasharray:5.0,5.0;" x1="792.3486" x2="792.3486" y1="43.2813" y2="795.0625"/></g><g><title>AppSettings</title><rect fill="#000000" fill-opacity="0.00000" height="751.7813" width="8" x="1043.8389" y="43.2813"/><line style="stroke:#181818;stroke-width:0.5;stroke-dasharray:5.0,5.0;" x1="1047.2871" x2="1047.2871" y1="43.2813" y2="795.0625"/></g><g><title>RepositoryFactory</title><rect fill="#000000" fill-opacity="0.00000" height="751.7813" width="8" x="1219.46" y="43.2813"/><line style="stroke:#181818;stroke-width:0.5;stroke-dasharray:5.0,5.0;" x1="1223.3906" x2="1223.3906" y1="43.2813" y2="795.0625"/></g><g><title>XRepository</title><rect fill="#000000" fill-opacity="0.00000" height="751.7813" width="8" x="1395.0029" y="43.2813"/><line style="stroke:#181818;stroke-width:0.5;stroke-dasharray:5.0,5.0;" x1="1398.5293" x2="1398.5293" y1="43.2813" y2="795.0625"/></g><g><title>XCategoryRepository</title><rect fill="#000000" fill-opacity="0.00000" height="751.7813" width="8" x="1585.6289" y="43.2813"/><line style="stroke:#181818;stroke-width:0.5;stroke-dasharray:5.0,5.0;" x1="1589.4766" x2="1589.4766" y1="43.2813" y2="795.0625"/></g><g class="participant participant-head" data-participant="SearchXAction"><rect fill="#E2E2F0" height="37.2813" rx="2.5" ry="2.5" style="stroke:#181818;stroke-width:0.5;" width="159.8398" x="5" y="5"/><text fill="#000000" font-family="sans-serif" font-size="20" lengthAdjust="spacing" textLength="145.8398" x="12" y="30.5645">SearchXAction</text></g><g class="participant participant-tail" data-participant="SearchXAction"><rect fill="#E2E2F0" height="37.2813" rx="2.5" ry="2.5" style="stroke:#181818;stroke-width:0.5;" width="159.8398" x="5" y="794.0625"/><text fill="#000000" font-family="sans-serif" font-size="20" lengthAdjust="spacing" textLength="145.8398" x="12" y="819.627">SearchXAction</text></g><g class="participant participant-head" data-participant="SearchXUI"><rect fill="#E2E2F0" height="37.2813" rx="2.5" ry="2.5" style="stroke:#181818;stroke-width:0.5;" width="117.3887" x="242.8721" y="5"/><text fill="#000000" font-family="sans-serif" font-size="20" lengthAdjust="spacing" textLength="103.3887" x="249.8721" y="30.5645">SearchXUI</text></g><g class="participant participant-tail" data-participant="SearchXUI"><rect fill="#E2E2F0" height="37.2813" rx="2.5" ry="2.5" style="stroke:#181818;stroke-width:0.5;" width="117.3887" x="242.8721" y="794.0625"/><text fill="#000000" font-family="sans-serif" font-size="20" lengthAdjust="spacing" textLength="103.3887" x="249.8721" y="819.627">SearchXUI</text></g><g class="participant participant-head" data-participant="SearchXController"><rect fill="#E2E2F0" height="37.2813" rx="2.5" ry="2.5" style="stroke:#181818;stroke-width:0.5;" width="195.6699" x="483.6787" y="5"/><text fill="#000000" font-family="sans-serif" font-size="20" lengthAdjust="spacing" textLength="181.6699" x="490.6787" y="30.5645">SearchXController</text></g><g class="participant participant-tail" data-participant="SearchXController"><rect fill="#E2E2F0" height="37.2813" rx="2.5" ry="2.5" style="stroke:#181818;stroke-width:0.5;" width="195.6699" x="483.6787" y="794.0625"/><text fill="#000000" font-family="sans-serif" font-size="20" lengthAdjust="spacing" textLength="181.6699" x="490.6787" y="819.627">SearchXController</text></g><g class="participant participant-head" data-participant="PersistenceContext"><rect fill="#E2E2F0" height="37.2813" rx="2.5" ry="2.5" style="stroke:#181818;stroke-width:0.5;" width="207.8086" x="689.3486" y="5"/><text fill="#000000" font-family="sans-serif" font-size="20" lengthAdjust="spacing" textLength="193.8086" x="696.3486" y="30.5645">PersistenceContext</text></g><g class="participant participant-tail" data-participant="PersistenceContext"><rect fill="#E2E2F0" height="37.2813" rx="2.5" ry="2.5" style="stroke:#181818;stroke-width:0.5;" width="207.8086" x="689.3486" y="794.0625"/><text fill="#000000" font-family="sans-serif" font-size="20" lengthAdjust="spacing" textLength="193.8086" x="696.3486" y="819.627">PersistenceContext</text></g><g class="participant participant-head" data-participant="AppSettings"><rect fill="#E2E2F0" height="37.2813" rx="2.5" ry="2.5" style="stroke:#181818;stroke-width:0.5;" width="135.1035" x="980.2871" y="5"/><text fill="#000000" font-family="sans-serif" font-size="20" lengthAdjust="spacing" textLength="121.1035" x="987.2871" y="30.5645">AppSettings</text></g><g class="participant participant-tail" data-participant="AppSettings"><rect fill="#E2E2F0" height="37.2813" rx="2.5" ry="2.5" style="stroke:#181818;stroke-width:0.5;" width="135.1035" x="980.2871" y="794.0625"/><text fill="#000000" font-family="sans-serif" font-size="20" lengthAdjust="spacing" textLength="121.1035" x="987.2871" y="819.627">AppSettings</text></g><g class="participant participant-head" data-participant="RepositoryFactory"><rect fill="#E2E2F0" height="37.2813" rx="2.5" ry="2.5" style="stroke:#181818;stroke-width:0.5;" width="196.1387" x="1125.3906" y="5"/><text fill="#000000" font-family="sans-serif" font-size="20" lengthAdjust="spacing" textLength="182.1387" x="1132.3906" y="30.5645">RepositoryFactory</text></g><g class="participant participant-tail" data-participant="RepositoryFactory"><rect fill="#E2E2F0" height="37.2813" rx="2.5" ry="2.5" style="stroke:#181818;stroke-width:0.5;" width="196.1387" x="1125.3906" y="794.0625"/><text fill="#000000" font-family="sans-serif" font-size="20" lengthAdjust="spacing" textLength="182.1387" x="1132.3906" y="819.627">RepositoryFactory</text></g><g class="participant participant-head" data-participant="XRepository"><rect fill="#E2E2F0" height="37.2813" rx="2.5" ry="2.5" style="stroke:#181818;stroke-width:0.5;" width="134.9473" x="1331.5293" y="5"/><text fill="#000000" font-family="sans-serif" font-size="20" lengthAdjust="spacing" textLength="120.9473" x="1338.5293" y="30.5645">XRepository</text></g><g class="participant participant-tail" data-participant="XRepository"><rect fill="#E2E2F0" height="37.2813" rx="2.5" ry="2.5" style="stroke:#181818;stroke-width:0.5;" width="134.9473" x="1331.5293" y="794.0625"/><text fill="#000000" font-family="sans-serif" font-size="20" lengthAdjust="spacing" textLength="120.9473" x="1338.5293" y="819.627">XRepository</text></g><g class="participant participant-head" data-participant="XCategoryRepository"><rect fill="#E2E2F0" height="37.2813" rx="2.5" ry="2.5" style="stroke:#181818;stroke-width:0.5;" width="226.3047" x="1476.4766" y="5"/><text fill="#000000" font-family="sans-serif" font-size="20" lengthAdjust="spacing" textLength="212.3047" x="1483.4766" y="30.5645">XCategoryRepository</text></g><g class="participant participant-tail" data-participant="XCategoryRepository"><rect fill="#E2E2F0" height="37.2813" rx="2.5" ry="2.5" style="stroke:#181818;stroke-width:0.5;" width="226.3047" x="1476.4766" y="794.0625"/><text fill="#000000" font-family="sans-serif" font-size="20" lengthAdjust="spacing" textLength="212.3047" x="1483.4766" y="819.627">XCategoryRepository</text></g><g><title>SearchXUI</title><rect fill="#FFFFFF" height="694.5" style="stroke:#181818;stroke-width:1;" width="10" x="296.5664" y="82.5625"/></g><g><title>SearchXController</title><rect fill="#FFFFFF" height="666.2188" style="stroke:#181818;stroke-width:1;" width="10" x="576.5137" y="119.8438"/></g><g><title>AppSettings</title><rect fill="#FFFFFF" height="65.2813" style="stroke:#181818;stroke-width:1;" width="10" x="1042.8389" y="231.6875"/></g><g><title>AppSettings</title><rect fill="#FFFFFF" height="65.2813" style="stroke:#181818;stroke-width:1;" width="10" x="1042.8389" y="571.9375"/></g><g><title>RepositoryFactory</title><rect fill="#FFFFFF" height="102.5625" style="stroke:#181818;stroke-width:1;" width="10" x="1218.46" y="268.9688"/></g><g><title>RepositoryFactory</title><rect fill="#FFFFFF" height="102.5625" style="stroke:#181818;stroke-width:1;" width="10" x="1218.46" y="609.2188"/></g><g><title>XRepository</title><rect fill="#FFFFFF" height="14" style="stroke:#181818;stroke-width:1;" width="10" x="1394.0029" y="711.7813"/></g><g><title>XCategoryRepository</title><rect fill="#FFFFFF" height="14" style="stroke:#181818;stroke-width:1;" width="10" x="1584.6289" y="371.5313"/></g><g class="message" data-participant-1="SearchXAction" data-participant-2="SearchXUI"><polygon fill="#181818" points="284.5664,78.5625,294.5664,82.5625,284.5664,86.5625,288.5664,82.5625" style="stroke:#181818;stroke-width:1;"/><line style="stroke:#181818;stroke-width:1;" x1="84.9199" x2="290.5664" y1="82.5625" y2="82.5625"/><text fill="#000000" font-family="sans-serif" font-size="20" lengthAdjust="spacing" textLength="192.6465" x="91.9199" y="75.8457">SearchXUI().show()</text></g><g class="message" data-participant-1="SearchXUI" data-participant-2="SearchXController"><polygon fill="#181818" points="564.5137,115.8438,574.5137,119.8438,564.5137,123.8438,568.5137,119.8438" style="stroke:#181818;stroke-width:1;"/><line style="stroke:#181818;stroke-width:1;" x1="306.5664" x2="570.5137" y1="119.8438" y2="119.8438"/><text fill="#000000" font-family="sans-serif" font-size="20" lengthAdjust="spacing" textLength="54.1016" x="313.5664" y="113.127">AllX()</text></g><g class="message" data-participant-1="SearchXController" data-participant-2="PersistenceContext"><polygon fill="#181818" points="781.2529,153.125,791.2529,157.125,781.2529,161.125,785.2529,157.125" style="stroke:#181818;stroke-width:1;"/><line style="stroke:#181818;stroke-width:1;" x1="586.5137" x2="787.2529" y1="157.125" y2="157.125"/><text fill="#000000" font-family="sans-serif" font-size="20" lengthAdjust="spacing" textLength="133.623" x="593.5137" y="150.4082">repositories()</text></g><g class="message" data-participant-1="PersistenceContext" data-participant-2="AppSettings"><polygon fill="#181818" points="1035.8389,190.4063,1045.8389,194.4063,1035.8389,198.4063,1039.8389,194.4063" style="stroke:#181818;stroke-width:1;"/><line style="stroke:#181818;stroke-width:1;" x1="793.2529" x2="1041.8389" y1="194.4063" y2="194.4063"/><text fill="#000000" font-family="sans-serif" font-size="20" lengthAdjust="spacing" textLength="100.332" x="800.2529" y="187.6895">instance()</text></g><g class="message" data-participant-1="PersistenceContext" data-participant-2="AppSettings"><polygon fill="#181818" points="1030.8389,227.6875,1040.8389,231.6875,1030.8389,235.6875,1034.8389,231.6875" style="stroke:#181818;stroke-width:1;"/><line style="stroke:#181818;stroke-width:1;" x1="793.2529" x2="1036.8389" y1="231.6875" y2="231.6875"/><text fill="#000000" font-family="sans-serif" font-size="20" lengthAdjust="spacing" textLength="230.5859" x="800.2529" y="224.9707">getRepositoryFactory()</text></g><g class="message" data-participant-1="AppSettings" data-participant-2="RepositoryFactory"><polygon fill="#181818" points="1206.46,264.9688,1216.46,268.9688,1206.46,272.9688,1210.46,268.9688" style="stroke:#181818;stroke-width:1;"/><line style="stroke:#181818;stroke-width:1;stroke-dasharray:2.0,2.0;" x1="1052.8389" x2="1212.46" y1="268.9688" y2="268.9688"/><text fill="#000000" font-family="sans-serif" font-size="20" lengthAdjust="spacing" textLength="79.5313" x="1059.8389" y="262.252">create()</text></g><g class="message" data-participant-1="RepositoryFactory" data-participant-2="AppSettings"><polygon fill="#181818" points="1063.8389,278.9688,1053.8389,282.9688,1063.8389,286.9688,1059.8389,282.9688" style="stroke:#181818;stroke-width:1;"/><line style="stroke:#181818;stroke-width:1;stroke-dasharray:2.0,2.0;" x1="1057.8389" x2="1217.46" y1="282.9688" y2="282.9688"/></g><g class="message" data-participant-1="AppSettings" data-participant-2="SearchXController"><polygon fill="#181818" points="597.5137,292.9688,587.5137,296.9688,597.5137,300.9688,593.5137,296.9688" style="stroke:#181818;stroke-width:1;"/><line style="stroke:#181818;stroke-width:1;stroke-dasharray:2.0,2.0;" x1="591.5137" x2="1046.8389" y1="296.9688" y2="296.9688"/></g><g class="message" data-participant-1="SearchXController" data-participant-2="RepositoryFactory"><polygon fill="#181818" points="1206.46,330.25,1216.46,334.25,1206.46,338.25,1210.46,334.25" style="stroke:#181818;stroke-width:1;"/><line style="stroke:#181818;stroke-width:1;" x1="586.5137" x2="1212.46" y1="334.25" y2="334.25"/><text fill="#000000" font-family="sans-serif" font-size="20" lengthAdjust="spacing" textLength="52.6758" x="593.5137" y="327.5332">allX()</text></g><g class="message" data-participant-1="RepositoryFactory" data-participant-2="XCategoryRepository"><polygon fill="#181818" points="1572.6289,367.5313,1582.6289,371.5313,1572.6289,375.5313,1576.6289,371.5313" style="stroke:#181818;stroke-width:1;"/><line style="stroke:#181818;stroke-width:1;" x1="1223.46" x2="1578.6289" y1="371.5313" y2="371.5313"/><text fill="#000000" font-family="sans-serif" font-size="20" lengthAdjust="spacing" textLength="79.5313" x="1230.46" y="364.8145">create()</text></g><g class="message" data-participant-1="XCategoryRepository" data-participant-2="SearchXController"><polygon fill="#181818" points="597.5137,381.5313,587.5137,385.5313,597.5137,389.5313,593.5137,385.5313" style="stroke:#181818;stroke-width:1;"/><line style="stroke:#181818;stroke-width:1;stroke-dasharray:2.0,2.0;" x1="591.5137" x2="1588.6289" y1="385.5313" y2="385.5313"/></g><g class="message" data-participant-1="SearchXController" data-participant-2="SearchXUI"><polygon fill="#181818" points="317.5664,418.8125,307.5664,422.8125,317.5664,426.8125,313.5664,422.8125" style="stroke:#181818;stroke-width:1;"/><line style="stroke:#181818;stroke-width:1;stroke-dasharray:2.0,2.0;" x1="311.5664" x2="575.5137" y1="422.8125" y2="422.8125"/><text fill="#000000" font-family="sans-serif" font-size="20" lengthAdjust="spacing" textLength="29.375" x="323.5664" y="416.0957">list</text></g><g class="message" data-participant-1="SearchXUI" data-participant-2="SearchXController"><polygon fill="#181818" points="564.5137,456.0938,574.5137,460.0938,564.5137,464.0938,568.5137,460.0938" style="stroke:#181818;stroke-width:1;"/><line style="stroke:#181818;stroke-width:1;" x1="306.5664" x2="570.5137" y1="460.0938" y2="460.0938"/><text fill="#000000" font-family="sans-serif" font-size="20" lengthAdjust="spacing" textLength="245.9473" x="313.5664" y="453.377">SearchXwithXCategory()</text></g><g class="message" data-participant-1="SearchXController" data-participant-2="PersistenceContext"><polygon fill="#181818" points="781.2529,493.375,791.2529,497.375,781.2529,501.375,785.2529,497.375" style="stroke:#181818;stroke-width:1;"/><line style="stroke:#181818;stroke-width:1;" x1="586.5137" x2="787.2529" y1="497.375" y2="497.375"/><text fill="#000000" font-family="sans-serif" font-size="20" lengthAdjust="spacing" textLength="133.623" x="593.5137" y="490.6582">repositories()</text></g><g class="message" data-participant-1="PersistenceContext" data-participant-2="AppSettings"><polygon fill="#181818" points="1035.8389,530.6563,1045.8389,534.6563,1035.8389,538.6563,1039.8389,534.6563" style="stroke:#181818;stroke-width:1;"/><line style="stroke:#181818;stroke-width:1;" x1="793.2529" x2="1041.8389" y1="534.6563" y2="534.6563"/><text fill="#000000" font-family="sans-serif" font-size="20" lengthAdjust="spacing" textLength="100.332" x="800.2529" y="527.9395">instance()</text></g><g class="message" data-participant-1="PersistenceContext" data-participant-2="AppSettings"><polygon fill="#181818" points="1030.8389,567.9375,1040.8389,571.9375,1030.8389,575.9375,1034.8389,571.9375" style="stroke:#181818;stroke-width:1;"/><line style="stroke:#181818;stroke-width:1;" x1="793.2529" x2="1036.8389" y1="571.9375" y2="571.9375"/><text fill="#000000" font-family="sans-serif" font-size="20" lengthAdjust="spacing" textLength="230.5859" x="800.2529" y="565.2207">getRepositoryFactory()</text></g><g class="message" data-participant-1="AppSettings" data-participant-2="RepositoryFactory"><polygon fill="#181818" points="1206.46,605.2188,1216.46,609.2188,1206.46,613.2188,1210.46,609.2188" style="stroke:#181818;stroke-width:1;"/><line style="stroke:#181818;stroke-width:1;stroke-dasharray:2.0,2.0;" x1="1052.8389" x2="1212.46" y1="609.2188" y2="609.2188"/><text fill="#000000" font-family="sans-serif" font-size="20" lengthAdjust="spacing" textLength="79.5313" x="1059.8389" y="602.502">create()</text></g><g class="message" data-participant-1="RepositoryFactory" data-participant-2="AppSettings"><polygon fill="#181818" points="1063.8389,619.2188,1053.8389,623.2188,1063.8389,627.2188,1059.8389,623.2188" style="stroke:#181818;stroke-width:1;"/><line style="stroke:#181818;stroke-width:1;stroke-dasharray:2.0,2.0;" x1="1057.8389" x2="1217.46" y1="623.2188" y2="623.2188"/></g><g class="message" data-participant-1="AppSettings" data-participant-2="SearchXController"><polygon fill="#181818" points="597.5137,633.2188,587.5137,637.2188,597.5137,641.2188,593.5137,637.2188" style="stroke:#181818;stroke-width:1;"/><line style="stroke:#181818;stroke-width:1;stroke-dasharray:2.0,2.0;" x1="591.5137" x2="1046.8389" y1="637.2188" y2="637.2188"/></g><g class="message" data-participant-1="SearchXController" data-participant-2="RepositoryFactory"><polygon fill="#181818" points="1206.46,670.5,1216.46,674.5,1206.46,678.5,1210.46,674.5" style="stroke:#181818;stroke-width:1;"/><line style="stroke:#181818;stroke-width:1;" x1="586.5137" x2="1212.46" y1="674.5" y2="674.5"/><text fill="#000000" font-family="sans-serif" font-size="20" lengthAdjust="spacing" textLength="186.4648" x="593.5137" y="667.7832">allXwithCategory()</text></g><g class="message" data-participant-1="RepositoryFactory" data-participant-2="XRepository"><polygon fill="#181818" points="1382.0029,707.7813,1392.0029,711.7813,1382.0029,715.7813,1386.0029,711.7813" style="stroke:#181818;stroke-width:1;"/><line style="stroke:#181818;stroke-width:1;" x1="1223.46" x2="1388.0029" y1="711.7813" y2="711.7813"/><text fill="#000000" font-family="sans-serif" font-size="20" lengthAdjust="spacing" textLength="79.5313" x="1230.46" y="705.0645">create()</text></g><g class="message" data-participant-1="XRepository" data-participant-2="SearchXController"><polygon fill="#181818" points="597.5137,721.7813,587.5137,725.7813,597.5137,729.7813,593.5137,725.7813" style="stroke:#181818;stroke-width:1;"/><line style="stroke:#181818;stroke-width:1;stroke-dasharray:2.0,2.0;" x1="591.5137" x2="1398.0029" y1="725.7813" y2="725.7813"/></g><g class="message" data-participant-1="SearchXController" data-participant-2="SearchXUI"><polygon fill="#181818" points="317.5664,759.0625,307.5664,763.0625,317.5664,767.0625,313.5664,763.0625" style="stroke:#181818;stroke-width:1;"/><line style="stroke:#181818;stroke-width:1;stroke-dasharray:2.0,2.0;" x1="311.5664" x2="575.5137" y1="763.0625" y2="763.0625"/><text fill="#000000" font-family="sans-serif" font-size="20" lengthAdjust="spacing" textLength="234.3848" x="323.5664" y="756.3457">listAllXWithXCategory()</text></g><g class="message" data-participant-1="SearchXUI" data-participant-2="SearchXAction"><polygon fill="#181818" points="95.9199,773.0625,85.9199,777.0625,95.9199,781.0625,91.9199,777.0625" style="stroke:#181818;stroke-width:1;"/><line style="stroke:#181818;stroke-width:1;" x1="89.9199" x2="300.5664" y1="777.0625" y2="777.0625"/></g><!--SRC=[jPOzRyCW48PtVWLZCgIgEdQ854MArAsgLTKh8jS4XHeBQDFsr_Si9GRCXNoMnGvtlFV58yTjLDCAApwqaHjOyYMyYq_j5wRnbVe5_d3F6DgzageLZUSL22lNzKnwPHhAylf4xSvHpngjmIRMPx1EEG-DXCu3ldrYdhLj1TwhPkMI_HTeZLFUs9-5aDqZiTR1p5YIBvzCGvhyCRoFndTkRRQZCUEuK5Dz2GzHITrsE1baGbqeDzEwtabGCb4FzYwv2ahdJK5jkwz9WOjYT8lmHvMeTtXSDSuBTBZWw0fyrk-1J59jFBIXKwmymKYPCCQJ5b2c524V_z0rrvsaTHtDxF3Czci9nPB9qLBrYlJM4AbFUJt7C2ly4QnKfwAK3lUeTo54UoSgOBajKUoICD6M0PGQBsJSxAFOxVQsog_xoF7rkGbajw3jFx0xZx_RW7W9aLUWUGMZfyBABwAskt7KXIkZN4QOdyLoFecQOAvVzSaqKsaKfK_Zklj2lXtWbE9yzpU3I2PycXdx0m00]--></g></svg>