<svg xmlns="http://www.w3.org/2000/svg" xmlns:xlink="http://www.w3.org/1999/xlink" contentStyleType="text/css" data-diagram-type="SEQUENCE" height="650px" preserveAspectRatio="none" style="width:1577px;height:650px;background:#FFFFFF;" version="1.1" viewBox="0 0 1577 650" width="1577px" zoomAndPan="magnify"><defs/><g><g><title>ChangeStateXUI</title><rect fill="#FFFFFF" height="508.0938" style="stroke:#181818;stroke-width:1;" width="10" x="387.1084" y="82.5625"/></g><g><title>ChangeStateXController</title><rect fill="#FFFFFF" height="456.8125" style="stroke:#181818;stroke-width:1;" width="10" x="613.999" y="119.8438"/></g><g><title>AppSettings</title><rect fill="#FFFFFF" height="65.2813" style="stroke:#181818;stroke-width:1;" width="10" x="1110.5049" y="231.6875"/></g><g><title>RepositoryFactory</title><rect fill="#FFFFFF" height="102.5625" style="stroke:#181818;stroke-width:1;" width="10" x="1286.126" y="268.9688"/></g><g><title>XRepository</title><rect fill="#FFFFFF" height="14" style="stroke:#181818;stroke-width:1;" width="10" x="1461.6689" y="371.5313"/></g><g><title>X</title><rect fill="#FFFFFF" height="65.2813" style="stroke:#181818;stroke-width:1;" width="10" x="1552.9932" y="497.375"/></g><g><title>ChangeStateXAction</title><rect fill="#000000" fill-opacity="0.00000" height="565.375" width="8" x="111.1006" y="43.2813"/><line style="stroke:#181818;stroke-width:0.5;stroke-dasharray:5.0,5.0;" x1="115" x2="115" y1="43.2813" y2="608.6563"/></g><g><title>ChangeStateXUI</title><rect fill="#000000" fill-opacity="0.00000" height="565.375" width="8" x="388.1084" y="43.2813"/><line style="stroke:#181818;stroke-width:0.5;stroke-dasharray:5.0,5.0;" x1="391.2334" x2="391.2334" y1="43.2813" y2="608.6563"/></g><g><title>ChangeStateXController</title><rect fill="#000000" fill-opacity="0.00000" height="565.375" width="8" x="614.999" y="43.2813"/><line style="stroke:#181818;stroke-width:0.5;stroke-dasharray:5.0,5.0;" x1="618.9834" x2="618.9834" y1="43.2813" y2="608.6563"/></g><g><title>PersistenceContext</title><rect fill="#000000" fill-opacity="0.00000" height="565.375" width="8" x="856.9189" y="43.2813"/><line style="stroke:#181818;stroke-width:0.5;stroke-dasharray:5.0,5.0;" x1="860.0146" x2="860.0146" y1="43.2813" y2="608.6563"/></g><g><title>AppSettings</title><rect fill="#000000" fill-opacity="0.00000" height="565.375" width="8" x="1111.5049" y="43.2813"/><line style="stroke:#181818;stroke-width:0.5;stroke-dasharray:5.0,5.0;" x1="1114.9531" x2="1114.9531" y1="43.2813" y2="608.6563"/></g><g><title>RepositoryFactory</title><rect fill="#000000" fill-opacity="0.00000" height="565.375" width="8" x="1287.126" y="43.2813"/><line style="stroke:#181818;stroke-width:0.5;stroke-dasharray:5.0,5.0;" x1="1291.0566" x2="1291.0566" y1="43.2813" y2="608.6563"/></g><g><title>XRepository</title><rect fill="#000000" fill-opacity="0.00000" height="565.375" width="8" x="1462.6689" y="43.2813"/><line style="stroke:#181818;stroke-width:0.5;stroke-dasharray:5.0,5.0;" x1="1466.1953" x2="1466.1953" y1="43.2813" y2="608.6563"/></g><g><title>X</title><rect fill="#000000" fill-opacity="0.00000" height="565.375" width="8" x="1553.9932" y="43.2813"/><line style="stroke:#181818;stroke-width:0.5;stroke-dasharray:5.0,5.0;" x1="1557.1426" x2="1557.1426" y1="43.2813" y2="608.6563"/></g><g class="participant participant-head" data-participant="ChangeStateXAction"><rect fill="#E2E2F0" height="37.2813" rx="2.5" ry="2.5" style="stroke:#181818;stroke-width:0.5;" width="220.2012" x="5" y="5"/><text fill="#000000" font-family="sans-serif" font-size="20" lengthAdjust="spacing" textLength="206.2012" x="12" y="30.5645">ChangeStateXAction</text></g><g class="participant participant-tail" data-participant="ChangeStateXAction"><rect fill="#E2E2F0" height="37.2813" rx="2.5" ry="2.5" style="stroke:#181818;stroke-width:0.5;" width="220.2012" x="5" y="607.6563"/><text fill="#000000" font-family="sans-serif" font-size="20" lengthAdjust="spacing" textLength="206.2012" x="12" y="633.2207">ChangeStateXAction</text></g><g class="participant participant-head" data-participant="ChangeStateXUI"><rect fill="#E2E2F0" height="37.2813" rx="2.5" ry="2.5" style="stroke:#181818;stroke-width:0.5;" width="177.75" x="303.2334" y="5"/><text fill="#000000" font-family="sans-serif" font-size="20" lengthAdjust="spacing" textLength="163.75" x="310.2334" y="30.5645">ChangeStateXUI</text></g><g class="participant participant-tail" data-participant="ChangeStateXUI"><rect fill="#E2E2F0" height="37.2813" rx="2.5" ry="2.5" style="stroke:#181818;stroke-width:0.5;" width="177.75" x="303.2334" y="607.6563"/><text fill="#000000" font-family="sans-serif" font-size="20" lengthAdjust="spacing" textLength="163.75" x="310.2334" y="633.2207">ChangeStateXUI</text></g><g class="participant participant-head" data-participant="ChangeStateXController"><rect fill="#E2E2F0" height="37.2813" rx="2.5" ry="2.5" style="stroke:#181818;stroke-width:0.5;" width="256.0313" x="490.9834" y="5"/><text fill="#000000" font-family="sans-serif" font-size="20" lengthAdjust="spacing" textLength="242.0313" x="497.9834" y="30.5645">ChangeStateXController</text></g><g class="participant participant-tail" data-participant="ChangeStateXController"><rect fill="#E2E2F0" height="37.2813" rx="2.5" ry="2.5" style="stroke:#181818;stroke-width:0.5;" width="256.0313" x="490.9834" y="607.6563"/><text fill="#000000" font-family="sans-serif" font-size="20" lengthAdjust="spacing" textLength="242.0313" x="497.9834" y="633.2207">ChangeStateXController</text></g><g class="participant participant-head" data-participant="PersistenceContext"><rect fill="#E2E2F0" height="37.2813" rx="2.5" ry="2.5" style="stroke:#181818;stroke-width:0.5;" width="207.8086" x="757.0146" y="5"/><text fill="#000000" font-family="sans-serif" font-size="20" lengthAdjust="spacing" textLength="193.8086" x="764.0146" y="30.5645">PersistenceContext</text></g><g class="participant participant-tail" data-participant="PersistenceContext"><rect fill="#E2E2F0" height="37.2813" rx="2.5" ry="2.5" style="stroke:#181818;stroke-width:0.5;" width="207.8086" x="757.0146" y="607.6563"/><text fill="#000000" font-family="sans-serif" font-size="20" lengthAdjust="spacing" textLength="193.8086" x="764.0146" y="633.2207">PersistenceContext</text></g><g class="participant participant-head" data-participant="AppSettings"><rect fill="#E2E2F0" height="37.2813" rx="2.5" ry="2.5" style="stroke:#181818;stroke-width:0.5;" width="135.1035" x="1047.9531" y="5"/><text fill="#000000" font-family="sans-serif" font-size="20" lengthAdjust="spacing" textLength="121.1035" x="1054.9531" y="30.5645">AppSettings</text></g><g class="participant participant-tail" data-participant="AppSettings"><rect fill="#E2E2F0" height="37.2813" rx="2.5" ry="2.5" style="stroke:#181818;stroke-width:0.5;" width="135.1035" x="1047.9531" y="607.6563"/><text fill="#000000" font-family="sans-serif" font-size="20" lengthAdjust="spacing" textLength="121.1035" x="1054.9531" y="633.2207">AppSettings</text></g><g class="participant participant-head" data-participant="RepositoryFactory"><rect fill="#E2E2F0" height="37.2813" rx="2.5" ry="2.5" style="stroke:#181818;stroke-width:0.5;" width="196.1387" x="1193.0566" y="5"/><text fill="#000000" font-family="sans-serif" font-size="20" lengthAdjust="spacing" textLength="182.1387" x="1200.0566" y="30.5645">RepositoryFactory</text></g><g class="participant participant-tail" data-participant="RepositoryFactory"><rect fill="#E2E2F0" height="37.2813" rx="2.5" ry="2.5" style="stroke:#181818;stroke-width:0.5;" width="196.1387" x="1193.0566" y="607.6563"/><text fill="#000000" font-family="sans-serif" font-size="20" lengthAdjust="spacing" textLength="182.1387" x="1200.0566" y="633.2207">RepositoryFactory</text></g><g class="participant participant-head" data-participant="XRepository"><rect fill="#E2E2F0" height="37.2813" rx="2.5" ry="2.5" style="stroke:#181818;stroke-width:0.5;" width="134.9473" x="1399.1953" y="5"/><text fill="#000000" font-family="sans-serif" font-size="20" lengthAdjust="spacing" textLength="120.9473" x="1406.1953" y="30.5645">XRepository</text></g><g class="participant participant-tail" data-participant="XRepository"><rect fill="#E2E2F0" height="37.2813" rx="2.5" ry="2.5" style="stroke:#181818;stroke-width:0.5;" width="134.9473" x="1399.1953" y="607.6563"/><text fill="#000000" font-family="sans-serif" font-size="20" lengthAdjust="spacing" textLength="120.9473" x="1406.1953" y="633.2207">XRepository</text></g><g class="participant participant-head" data-participant="X"><rect fill="#E2E2F0" height="37.2813" rx="2.5" ry="2.5" style="stroke:#181818;stroke-width:0.5;" width="27.7012" x="1544.1426" y="5"/><text fill="#000000" font-family="sans-serif" font-size="20" lengthAdjust="spacing" textLength="13.7012" x="1551.1426" y="30.5645">X</text></g><g class="participant participant-tail" data-participant="X"><rect fill="#E2E2F0" height="37.2813" rx="2.5" ry="2.5" style="stroke:#181818;stroke-width:0.5;" width="27.7012" x="1544.1426" y="607.6563"/><text fill="#000000" font-family="sans-serif" font-size="20" lengthAdjust="spacing" textLength="13.7012" x="1551.1426" y="633.2207">X</text></g><g><title>ChangeStateXUI</title><rect fill="#FFFFFF" height="508.0938" style="stroke:#181818;stroke-width:1;" width="10" x="387.1084" y="82.5625"/></g><g><title>ChangeStateXController</title><rect fill="#FFFFFF" height="456.8125" style="stroke:#181818;stroke-width:1;" width="10" x="613.999" y="119.8438"/></g><g><title>AppSettings</title><rect fill="#FFFFFF" height="65.2813" style="stroke:#181818;stroke-width:1;" width="10" x="1110.5049" y="231.6875"/></g><g><title>RepositoryFactory</title><rect fill="#FFFFFF" height="102.5625" style="stroke:#181818;stroke-width:1;" width="10" x="1286.126" y="268.9688"/></g><g><title>XRepository</title><rect fill="#FFFFFF" height="14" style="stroke:#181818;stroke-width:1;" width="10" x="1461.6689" y="371.5313"/></g><g><title>X</title><rect fill="#FFFFFF" height="65.2813" style="stroke:#181818;stroke-width:1;" width="10" x="1552.9932" y="497.375"/></g><g class="message" data-participant-1="ChangeStateXAction" data-participant-2="ChangeStateXUI"><polygon fill="#181818" points="375.1084,78.5625,385.1084,82.5625,375.1084,86.5625,379.1084,82.5625" style="stroke:#181818;stroke-width:1;"/><line style="stroke:#181818;stroke-width:1;" x1="115.1006" x2="381.1084" y1="82.5625" y2="82.5625"/><text fill="#000000" font-family="sans-serif" font-size="20" lengthAdjust="spacing" textLength="253.0078" x="122.1006" y="75.8457">ChangeStateXUI().show()</text></g><g class="message" data-participant-1="ChangeStateXUI" data-participant-2="ChangeStateXController"><polygon fill="#181818" points="601.999,115.8438,611.999,119.8438,601.999,123.8438,605.999,119.8438" style="stroke:#181818;stroke-width:1;"/><line style="stroke:#181818;stroke-width:1;" x1="397.1084" x2="607.999" y1="119.8438" y2="119.8438"/><text fill="#000000" font-family="sans-serif" font-size="20" lengthAdjust="spacing" textLength="54.1016" x="404.1084" y="113.127">AllX()</text></g><g class="message" data-participant-1="ChangeStateXController" data-participant-2="PersistenceContext"><polygon fill="#181818" points="848.9189,153.125,858.9189,157.125,848.9189,161.125,852.9189,157.125" style="stroke:#181818;stroke-width:1;"/><line style="stroke:#181818;stroke-width:1;" x1="623.999" x2="854.9189" y1="157.125" y2="157.125"/><text fill="#000000" font-family="sans-serif" font-size="20" lengthAdjust="spacing" textLength="133.623" x="630.999" y="150.4082">repositories()</text></g><g class="message" data-participant-1="PersistenceContext" data-participant-2="AppSettings"><polygon fill="#181818" points="1103.5049,190.4063,1113.5049,194.4063,1103.5049,198.4063,1107.5049,194.4063" style="stroke:#181818;stroke-width:1;"/><line style="stroke:#181818;stroke-width:1;" x1="860.9189" x2="1109.5049" y1="194.4063" y2="194.4063"/><text fill="#000000" font-family="sans-serif" font-size="20" lengthAdjust="spacing" textLength="100.332" x="867.9189" y="187.6895">instance()</text></g><g class="message" data-participant-1="PersistenceContext" data-participant-2="AppSettings"><polygon fill="#181818" points="1098.5049,227.6875,1108.5049,231.6875,1098.5049,235.6875,1102.5049,231.6875" style="stroke:#181818;stroke-width:1;"/><line style="stroke:#181818;stroke-width:1;" x1="860.9189" x2="1104.5049" y1="231.6875" y2="231.6875"/><text fill="#000000" font-family="sans-serif" font-size="20" lengthAdjust="spacing" textLength="230.5859" x="867.9189" y="224.9707">getRepositoryFactory()</text></g><g class="message" data-participant-1="AppSettings" data-participant-2="RepositoryFactory"><polygon fill="#181818" points="1274.126,264.9688,1284.126,268.9688,1274.126,272.9688,1278.126,268.9688" style="stroke:#181818;stroke-width:1;"/><line style="stroke:#181818;stroke-width:1;stroke-dasharray:2.0,2.0;" x1="1120.5049" x2="1280.126" y1="268.9688" y2="268.9688"/><text fill="#000000" font-family="sans-serif" font-size="20" lengthAdjust="spacing" textLength="79.5313" x="1127.5049" y="262.252">create()</text></g><g class="message" data-participant-1="RepositoryFactory" data-participant-2="AppSettings"><polygon fill="#181818" points="1131.5049,278.9688,1121.5049,282.9688,1131.5049,286.9688,1127.5049,282.9688" style="stroke:#181818;stroke-width:1;"/><line style="stroke:#181818;stroke-width:1;stroke-dasharray:2.0,2.0;" x1="1125.5049" x2="1285.126" y1="282.9688" y2="282.9688"/></g><g class="message" data-participant-1="AppSettings" data-participant-2="ChangeStateXController"><polygon fill="#181818" points="634.999,292.9688,624.999,296.9688,634.999,300.9688,630.999,296.9688" style="stroke:#181818;stroke-width:1;"/><line style="stroke:#181818;stroke-width:1;stroke-dasharray:2.0,2.0;" x1="628.999" x2="1114.5049" y1="296.9688" y2="296.9688"/></g><g class="message" data-participant-1="ChangeStateXController" data-participant-2="RepositoryFactory"><polygon fill="#181818" points="1274.126,330.25,1284.126,334.25,1274.126,338.25,1278.126,334.25" style="stroke:#181818;stroke-width:1;"/><line style="stroke:#181818;stroke-width:1;" x1="623.999" x2="1280.126" y1="334.25" y2="334.25"/><text fill="#000000" font-family="sans-serif" font-size="20" lengthAdjust="spacing" textLength="52.6758" x="630.999" y="327.5332">allX()</text></g><g class="message" data-participant-1="RepositoryFactory" data-participant-2="XRepository"><polygon fill="#181818" points="1449.6689,367.5313,1459.6689,371.5313,1449.6689,375.5313,1453.6689,371.5313" style="stroke:#181818;stroke-width:1;"/><line style="stroke:#181818;stroke-width:1;" x1="1291.126" x2="1455.6689" y1="371.5313" y2="371.5313"/><text fill="#000000" font-family="sans-serif" font-size="20" lengthAdjust="spacing" textLength="79.5313" x="1298.126" y="364.8145">create()</text></g><g class="message" data-participant-1="XRepository" data-participant-2="ChangeStateXController"><polygon fill="#181818" points="634.999,381.5313,624.999,385.5313,634.999,389.5313,630.999,385.5313" style="stroke:#181818;stroke-width:1;"/><line style="stroke:#181818;stroke-width:1;stroke-dasharray:2.0,2.0;" x1="628.999" x2="1465.6689" y1="385.5313" y2="385.5313"/></g><g class="message" data-participant-1="ChangeStateXController" data-participant-2="ChangeStateXUI"><polygon fill="#181818" points="408.1084,418.8125,398.1084,422.8125,408.1084,426.8125,404.1084,422.8125" style="stroke:#181818;stroke-width:1;"/><line style="stroke:#181818;stroke-width:1;stroke-dasharray:2.0,2.0;" x1="402.1084" x2="612.999" y1="422.8125" y2="422.8125"/><text fill="#000000" font-family="sans-serif" font-size="20" lengthAdjust="spacing" textLength="29.375" x="414.1084" y="416.0957">list</text></g><g class="message" data-participant-1="ChangeStateXUI" data-participant-2="ChangeStateXController"><polygon fill="#181818" points="601.999,456.0938,611.999,460.0938,601.999,464.0938,605.999,460.0938" style="stroke:#181818;stroke-width:1;"/><line style="stroke:#181818;stroke-width:1;" x1="397.1084" x2="607.999" y1="460.0938" y2="460.0938"/><text fill="#000000" font-family="sans-serif" font-size="20" lengthAdjust="spacing" textLength="158.8184" x="404.1084" y="453.377">ChangeStateX()</text></g><g class="message" data-participant-1="ChangeStateXController" data-participant-2="X"><polygon fill="#181818" points="1540.9932,493.375,1550.9932,497.375,1540.9932,501.375,1544.9932,497.375" style="stroke:#181818;stroke-width:1;"/><line style="stroke:#181818;stroke-width:1;" x1="623.999" x2="1546.9932" y1="497.375" y2="497.375"/><text fill="#000000" font-family="sans-serif" font-size="20" lengthAdjust="spacing" textLength="149.7754" x="630.999" y="490.6582">setState(state)</text></g><g class="message" data-participant-1="X" data-participant-2="ChangeStateXController"><polygon fill="#181818" points="634.999,507.375,624.999,511.375,634.999,515.375,630.999,511.375" style="stroke:#181818;stroke-width:1;"/><line style="stroke:#181818;stroke-width:1;" x1="628.999" x2="1551.9932" y1="511.375" y2="511.375"/></g><g class="message" data-participant-1="ChangeStateXController" data-participant-2="X"><polygon fill="#181818" points="1540.9932,544.6563,1550.9932,548.6563,1540.9932,552.6563,1544.9932,548.6563" style="stroke:#181818;stroke-width:1;"/><line style="stroke:#181818;stroke-width:1;" x1="623.999" x2="1546.9932" y1="548.6563" y2="548.6563"/><text fill="#000000" font-family="sans-serif" font-size="20" lengthAdjust="spacing" textLength="133.877" x="630.999" y="541.9395">updateDate()</text></g><g class="message" data-participant-1="X" data-participant-2="ChangeStateXController"><polygon fill="#181818" points="634.999,558.6563,624.999,562.6563,634.999,566.6563,630.999,562.6563" style="stroke:#181818;stroke-width:1;"/><line style="stroke:#181818;stroke-width:1;" x1="628.999" x2="1556.9932" y1="562.6563" y2="562.6563"/></g><g class="message" data-participant-1="ChangeStateXController" data-participant-2="ChangeStateXUI"><polygon fill="#181818" points="408.1084,572.6563,398.1084,576.6563,408.1084,580.6563,404.1084,576.6563" style="stroke:#181818;stroke-width:1;"/><line style="stroke:#181818;stroke-width:1;" x1="402.1084" x2="617.999" y1="576.6563" y2="576.6563"/></g><g class="message" data-participant-1="ChangeStateXUI" data-participant-2="ChangeStateXAction"><polygon fill="#181818" points="126.1006,586.6563,116.1006,590.6563,126.1006,594.6563,122.1006,590.6563" style="stroke:#181818;stroke-width:1;"/><line style="stroke:#181818;stroke-width:1;" x1="120.1006" x2="391.1084" y1="590.6563" y2="590.6563"/></g><!--SRC=[dLLDQyCm3BtdL_ZO7Zh6ZZiKIaTXjx4moDKaMclgsS5Mz_NhfuncbR_QT3uau2U_9pt9YTyhqqidtxHjzz293bxbGUF66gpLDuYxsweY75MhUcbGh7VIRA56YT2iMbJM5E6NnoAq9dfdjGONX3o1yyeZc1Q62FZ405xrVGs8ocnziFyClVKAhVlQo7Pu1MXpWgigJLyibb7MuZxQcCrl_Cv-pEQLe4KIwfs0kDO1YuWYwbFL9B7IkZao5bcPJMDSWO-KKlD8nOsrA_1CRLYPU69X7jDnPJnA2lZ7qIrWqfU89gYRDpSEuimBKag8IQzrG3Jd5D8nYKDJtaLOryNCBdHlN1sShRlSv5pbCfoaJ15BVWboNh5yoYxzXV0RDO9SO88HJ337LZ8WTrSrJI8t-8exo85mSieTQEYS1_o5Pdvu1WTFPV7THaoRZVEoXxuZu24TywdqtFK9mvRvm4KiLtoiqbOSVnyNQ4cugdu0]--></g></svg>