<svg xmlns="http://www.w3.org/2000/svg" xmlns:xlink="http://www.w3.org/1999/xlink" contentStyleType="text/css" data-diagram-type="SEQUENCE" height="613px" preserveAspectRatio="none" style="width:2169px;height:613px;background:#FFFFFF;" version="1.1" viewBox="0 0 2169 613" width="2169px" zoomAndPan="magnify"><defs/><g><g><title>SendShowProposalUI</title><rect fill="#FFFFFF" height="470.8125" style="stroke:#181818;stroke-width:1;" width="10" x="457.3184" y="82.5625"/></g><g><title>SendShowProposalController</title><rect fill="#FFFFFF" height="419.5313" style="stroke:#181818;stroke-width:1;" width="10" x="929.9121" y="119.8438"/></g><g><title>AppSettings</title><rect fill="#FFFFFF" height="65.2813" style="stroke:#181818;stroke-width:1;" width="10" x="1449.8213" y="194.4063"/></g><g><title>RepositoryFactory</title><rect fill="#FFFFFF" height="102.5625" style="stroke:#181818;stroke-width:1;" width="10" x="1625.4424" y="231.6875"/></g><g><title>ShowProposalRepository</title><rect fill="#FFFFFF" height="14" style="stroke:#181818;stroke-width:1;" width="10" x="1863.959" y="334.25"/></g><g><title>ShowProposal</title><rect fill="#FFFFFF" height="14" style="stroke:#181818;stroke-width:1;" width="10" x="2081.2305" y="460.0938"/></g><g><title>SendShowProposalAction</title><rect fill="#000000" fill-opacity="0.00000" height="528.0938" width="8" x="134.5039" y="43.2813"/><line style="stroke:#181818;stroke-width:0.5;stroke-dasharray:5.0,5.0;" x1="138" x2="138" y1="43.2813" y2="571.375"/></g><g><title>SendShowProposalUI</title><rect fill="#000000" fill-opacity="0.00000" height="528.0938" width="8" x="458.3184" y="43.2813"/><line style="stroke:#181818;stroke-width:0.5;stroke-dasharray:5.0,5.0;" x1="462.04" x2="462.04" y1="43.2813" y2="571.375"/></g><g><title>SendShowProposalController</title><rect fill="#000000" fill-opacity="0.00000" height="528.0938" width="8" x="930.9121" y="43.2813"/><line style="stroke:#181818;stroke-width:0.5;stroke-dasharray:5.0,5.0;" x1="934.4932" x2="934.4932" y1="43.2813" y2="571.375"/></g><g><title>PersistenceContext</title><rect fill="#000000" fill-opacity="0.00000" height="528.0938" width="8" x="1196.2354" y="43.2813"/><line style="stroke:#181818;stroke-width:0.5;stroke-dasharray:5.0,5.0;" x1="1199.3311" x2="1199.3311" y1="43.2813" y2="571.375"/></g><g><title>AppSettings</title><rect fill="#000000" fill-opacity="0.00000" height="528.0938" width="8" x="1450.8213" y="43.2813"/><line style="stroke:#181818;stroke-width:0.5;stroke-dasharray:5.0,5.0;" x1="1454.2695" x2="1454.2695" y1="43.2813" y2="571.375"/></g><g><title>RepositoryFactory</title><rect fill="#000000" fill-opacity="0.00000" height="528.0938" width="8" x="1626.4424" y="43.2813"/><line style="stroke:#181818;stroke-width:0.5;stroke-dasharray:5.0,5.0;" x1="1630.373" x2="1630.373" y1="43.2813" y2="571.375"/></g><g><title>ShowProposalRepository</title><rect fill="#000000" fill-opacity="0.00000" height="528.0938" width="8" x="1864.959" y="43.2813"/><line style="stroke:#181818;stroke-width:0.5;stroke-dasharray:5.0,5.0;" x1="1868.5117" x2="1868.5117" y1="43.2813" y2="571.375"/></g><g><title>ShowProposal</title><rect fill="#000000" fill-opacity="0.00000" height="528.0938" width="8" x="2082.2305" y="43.2813"/><line style="stroke:#181818;stroke-width:0.5;stroke-dasharray:5.0,5.0;" x1="2085.4063" x2="2085.4063" y1="43.2813" y2="571.375"/></g><g class="participant participant-head" data-participant="SendShowProposalAction"><rect fill="#E2E2F0" height="37.2813" rx="2.5" ry="2.5" style="stroke:#181818;stroke-width:0.5;" width="267.0078" x="5" y="5"/><text fill="#000000" font-family="sans-serif" font-size="20" lengthAdjust="spacing" textLength="253.0078" x="12" y="30.5645">SendShowProposalAction</text></g><g class="participant participant-tail" data-participant="SendShowProposalAction"><rect fill="#E2E2F0" height="37.2813" rx="2.5" ry="2.5" style="stroke:#181818;stroke-width:0.5;" width="267.0078" x="5" y="570.375"/><text fill="#000000" font-family="sans-serif" font-size="20" lengthAdjust="spacing" textLength="253.0078" x="12" y="595.9395">SendShowProposalAction</text></g><g class="participant participant-head" data-participant="SendShowProposalUI"><rect fill="#E2E2F0" height="37.2813" rx="2.5" ry="2.5" style="stroke:#181818;stroke-width:0.5;" width="224.5566" x="350.04" y="5"/><text fill="#000000" font-family="sans-serif" font-size="20" lengthAdjust="spacing" textLength="210.5566" x="357.04" y="30.5645">SendShowProposalUI</text></g><g class="participant participant-tail" data-participant="SendShowProposalUI"><rect fill="#E2E2F0" height="37.2813" rx="2.5" ry="2.5" style="stroke:#181818;stroke-width:0.5;" width="224.5566" x="350.04" y="570.375"/><text fill="#000000" font-family="sans-serif" font-size="20" lengthAdjust="spacing" textLength="210.5566" x="357.04" y="595.9395">SendShowProposalUI</text></g><g class="participant participant-head" data-participant="SendShowProposalController"><rect fill="#E2E2F0" height="37.2813" rx="2.5" ry="2.5" style="stroke:#181818;stroke-width:0.5;" width="302.8379" x="783.4932" y="5"/><text fill="#000000" font-family="sans-serif" font-size="20" lengthAdjust="spacing" textLength="288.8379" x="790.4932" y="30.5645">SendShowProposalController</text></g><g class="participant participant-tail" data-participant="SendShowProposalController"><rect fill="#E2E2F0" height="37.2813" rx="2.5" ry="2.5" style="stroke:#181818;stroke-width:0.5;" width="302.8379" x="783.4932" y="570.375"/><text fill="#000000" font-family="sans-serif" font-size="20" lengthAdjust="spacing" textLength="288.8379" x="790.4932" y="595.9395">SendShowProposalController</text></g><g class="participant participant-head" data-participant="PersistenceContext"><rect fill="#E2E2F0" height="37.2813" rx="2.5" ry="2.5" style="stroke:#181818;stroke-width:0.5;" width="207.8086" x="1096.3311" y="5"/><text fill="#000000" font-family="sans-serif" font-size="20" lengthAdjust="spacing" textLength="193.8086" x="1103.3311" y="30.5645">PersistenceContext</text></g><g class="participant participant-tail" data-participant="PersistenceContext"><rect fill="#E2E2F0" height="37.2813" rx="2.5" ry="2.5" style="stroke:#181818;stroke-width:0.5;" width="207.8086" x="1096.3311" y="570.375"/><text fill="#000000" font-family="sans-serif" font-size="20" lengthAdjust="spacing" textLength="193.8086" x="1103.3311" y="595.9395">PersistenceContext</text></g><g class="participant participant-head" data-participant="AppSettings"><rect fill="#E2E2F0" height="37.2813" rx="2.5" ry="2.5" style="stroke:#181818;stroke-width:0.5;" width="135.1035" x="1387.2695" y="5"/><text fill="#000000" font-family="sans-serif" font-size="20" lengthAdjust="spacing" textLength="121.1035" x="1394.2695" y="30.5645">AppSettings</text></g><g class="participant participant-tail" data-participant="AppSettings"><rect fill="#E2E2F0" height="37.2813" rx="2.5" ry="2.5" style="stroke:#181818;stroke-width:0.5;" width="135.1035" x="1387.2695" y="570.375"/><text fill="#000000" font-family="sans-serif" font-size="20" lengthAdjust="spacing" textLength="121.1035" x="1394.2695" y="595.9395">AppSettings</text></g><g class="participant participant-head" data-participant="RepositoryFactory"><rect fill="#E2E2F0" height="37.2813" rx="2.5" ry="2.5" style="stroke:#181818;stroke-width:0.5;" width="196.1387" x="1532.373" y="5"/><text fill="#000000" font-family="sans-serif" font-size="20" lengthAdjust="spacing" textLength="182.1387" x="1539.373" y="30.5645">RepositoryFactory</text></g><g class="participant participant-tail" data-participant="RepositoryFactory"><rect fill="#E2E2F0" height="37.2813" rx="2.5" ry="2.5" style="stroke:#181818;stroke-width:0.5;" width="196.1387" x="1532.373" y="570.375"/><text fill="#000000" font-family="sans-serif" font-size="20" lengthAdjust="spacing" textLength="182.1387" x="1539.373" y="595.9395">RepositoryFactory</text></g><g class="participant participant-head" data-participant="ShowProposalRepository"><rect fill="#E2E2F0" height="37.2813" rx="2.5" ry="2.5" style="stroke:#181818;stroke-width:0.5;" width="260.8945" x="1738.5117" y="5"/><text fill="#000000" font-family="sans-serif" font-size="20" lengthAdjust="spacing" textLength="246.8945" x="1745.5117" y="30.5645">ShowProposalRepository</text></g><g class="participant participant-tail" data-participant="ShowProposalRepository"><rect fill="#E2E2F0" height="37.2813" rx="2.5" ry="2.5" style="stroke:#181818;stroke-width:0.5;" width="260.8945" x="1738.5117" y="570.375"/><text fill="#000000" font-family="sans-serif" font-size="20" lengthAdjust="spacing" textLength="246.8945" x="1745.5117" y="595.9395">ShowProposalRepository</text></g><g class="participant participant-head" data-participant="ShowProposal"><rect fill="#E2E2F0" height="37.2813" rx="2.5" ry="2.5" style="stroke:#181818;stroke-width:0.5;" width="153.6484" x="2009.4063" y="5"/><text fill="#000000" font-family="sans-serif" font-size="20" lengthAdjust="spacing" textLength="139.6484" x="2016.4063" y="30.5645">ShowProposal</text></g><g class="participant participant-tail" data-participant="ShowProposal"><rect fill="#E2E2F0" height="37.2813" rx="2.5" ry="2.5" style="stroke:#181818;stroke-width:0.5;" width="153.6484" x="2009.4063" y="570.375"/><text fill="#000000" font-family="sans-serif" font-size="20" lengthAdjust="spacing" textLength="139.6484" x="2016.4063" y="595.9395">ShowProposal</text></g><g><title>SendShowProposalUI</title><rect fill="#FFFFFF" height="470.8125" style="stroke:#181818;stroke-width:1;" width="10" x="457.3184" y="82.5625"/></g><g><title>SendShowProposalController</title><rect fill="#FFFFFF" height="419.5313" style="stroke:#181818;stroke-width:1;" width="10" x="929.9121" y="119.8438"/></g><g><title>AppSettings</title><rect fill="#FFFFFF" height="65.2813" style="stroke:#181818;stroke-width:1;" width="10" x="1449.8213" y="194.4063"/></g><g><title>RepositoryFactory</title><rect fill="#FFFFFF" height="102.5625" style="stroke:#181818;stroke-width:1;" width="10" x="1625.4424" y="231.6875"/></g><g><title>ShowProposalRepository</title><rect fill="#FFFFFF" height="14" style="stroke:#181818;stroke-width:1;" width="10" x="1863.959" y="334.25"/></g><g><title>ShowProposal</title><rect fill="#FFFFFF" height="14" style="stroke:#181818;stroke-width:1;" width="10" x="2081.2305" y="460.0938"/></g><g class="message" data-participant-1="SendShowProposalAction" data-participant-2="SendShowProposalUI"><polygon fill="#181818" points="445.3184,78.5625,455.3184,82.5625,445.3184,86.5625,449.3184,82.5625" style="stroke:#181818;stroke-width:1;"/><line style="stroke:#181818;stroke-width:1;" x1="138.5039" x2="451.3184" y1="82.5625" y2="82.5625"/><text fill="#000000" font-family="sans-serif" font-size="20" lengthAdjust="spacing" textLength="299.8145" x="145.5039" y="75.8457">SendShowProposalUI().show()</text></g><g class="message" data-participant-1="SendShowProposalUI" data-participant-2="SendShowProposalController"><polygon fill="#181818" points="917.9121,115.8438,927.9121,119.8438,917.9121,123.8438,921.9121,119.8438" style="stroke:#181818;stroke-width:1;"/><line style="stroke:#181818;stroke-width:1;" x1="467.3184" x2="923.9121" y1="119.8438" y2="119.8438"/><text fill="#000000" font-family="sans-serif" font-size="20" lengthAdjust="spacing" textLength="189.043" x="474.3184" y="113.127">allShowProposals()</text></g><g class="message" data-participant-1="SendShowProposalController" data-participant-2="PersistenceContext"><polygon fill="#181818" points="1188.2354,153.125,1198.2354,157.125,1188.2354,161.125,1192.2354,157.125" style="stroke:#181818;stroke-width:1;"/><line style="stroke:#181818;stroke-width:1;" x1="939.9121" x2="1194.2354" y1="157.125" y2="157.125"/><text fill="#000000" font-family="sans-serif" font-size="20" lengthAdjust="spacing" textLength="133.623" x="946.9121" y="150.4082">repositories()</text></g><g class="message" data-participant-1="PersistenceContext" data-participant-2="AppSettings"><polygon fill="#181818" points="1437.8213,190.4063,1447.8213,194.4063,1437.8213,198.4063,1441.8213,194.4063" style="stroke:#181818;stroke-width:1;"/><line style="stroke:#181818;stroke-width:1;" x1="1200.2354" x2="1443.8213" y1="194.4063" y2="194.4063"/><text fill="#000000" font-family="sans-serif" font-size="20" lengthAdjust="spacing" textLength="230.5859" x="1207.2354" y="187.6895">getRepositoryFactory()</text></g><g class="message" data-participant-1="AppSettings" data-participant-2="RepositoryFactory"><polygon fill="#181818" points="1613.4424,227.6875,1623.4424,231.6875,1613.4424,235.6875,1617.4424,231.6875" style="stroke:#181818;stroke-width:1;"/><line style="stroke:#181818;stroke-width:1;stroke-dasharray:2.0,2.0;" x1="1459.8213" x2="1619.4424" y1="231.6875" y2="231.6875"/><text fill="#000000" font-family="sans-serif" font-size="20" lengthAdjust="spacing" textLength="79.5313" x="1466.8213" y="224.9707">create()</text></g><g class="message" data-participant-1="RepositoryFactory" data-participant-2="AppSettings"><polygon fill="#181818" points="1470.8213,241.6875,1460.8213,245.6875,1470.8213,249.6875,1466.8213,245.6875" style="stroke:#181818;stroke-width:1;"/><line style="stroke:#181818;stroke-width:1;stroke-dasharray:2.0,2.0;" x1="1464.8213" x2="1624.4424" y1="245.6875" y2="245.6875"/></g><g class="message" data-participant-1="AppSettings" data-participant-2="SendShowProposalController"><polygon fill="#181818" points="950.9121,255.6875,940.9121,259.6875,950.9121,263.6875,946.9121,259.6875" style="stroke:#181818;stroke-width:1;"/><line style="stroke:#181818;stroke-width:1;stroke-dasharray:2.0,2.0;" x1="944.9121" x2="1453.8213" y1="259.6875" y2="259.6875"/></g><g class="message" data-participant-1="SendShowProposalController" data-participant-2="RepositoryFactory"><polygon fill="#181818" points="1613.4424,292.9688,1623.4424,296.9688,1613.4424,300.9688,1617.4424,296.9688" style="stroke:#181818;stroke-width:1;"/><line style="stroke:#181818;stroke-width:1;" x1="939.9121" x2="1619.4424" y1="296.9688" y2="296.9688"/><text fill="#000000" font-family="sans-serif" font-size="20" lengthAdjust="spacing" textLength="218.0176" x="946.9121" y="290.252">findAllShowProposal()</text></g><g class="message" data-participant-1="RepositoryFactory" data-participant-2="ShowProposalRepository"><polygon fill="#181818" points="1851.959,330.25,1861.959,334.25,1851.959,338.25,1855.959,334.25" style="stroke:#181818;stroke-width:1;"/><line style="stroke:#181818;stroke-width:1;" x1="1630.4424" x2="1857.959" y1="334.25" y2="334.25"/><text fill="#000000" font-family="sans-serif" font-size="20" lengthAdjust="spacing" textLength="79.5313" x="1637.4424" y="327.5332">create()</text></g><g class="message" data-participant-1="ShowProposalRepository" data-participant-2="SendShowProposalController"><polygon fill="#181818" points="950.9121,344.25,940.9121,348.25,950.9121,352.25,946.9121,348.25" style="stroke:#181818;stroke-width:1;"/><line style="stroke:#181818;stroke-width:1;stroke-dasharray:2.0,2.0;" x1="944.9121" x2="1867.959" y1="348.25" y2="348.25"/></g><g class="message" data-participant-1="SendShowProposalController" data-participant-2="SendShowProposalUI"><polygon fill="#181818" points="478.3184,381.5313,468.3184,385.5313,478.3184,389.5313,474.3184,385.5313" style="stroke:#181818;stroke-width:1;"/><line style="stroke:#181818;stroke-width:1;stroke-dasharray:2.0,2.0;" x1="472.3184" x2="928.9121" y1="385.5313" y2="385.5313"/><text fill="#000000" font-family="sans-serif" font-size="20" lengthAdjust="spacing" textLength="29.375" x="484.3184" y="378.8145">list</text></g><g class="message" data-participant-1="SendShowProposalUI" data-participant-2="SendShowProposalController"><polygon fill="#181818" points="917.9121,418.8125,927.9121,422.8125,917.9121,426.8125,921.9121,422.8125" style="stroke:#181818;stroke-width:1;"/><line style="stroke:#181818;stroke-width:1;" x1="467.3184" x2="923.9121" y1="422.8125" y2="422.8125"/><text fill="#000000" font-family="sans-serif" font-size="20" lengthAdjust="spacing" textLength="438.5938" x="474.3184" y="416.0957">changeShowProposalStatus(Show Proposal)</text></g><g class="message" data-participant-1="SendShowProposalController" data-participant-2="ShowProposal"><polygon fill="#181818" points="2069.2305,456.0938,2079.2305,460.0938,2069.2305,464.0938,2073.2305,460.0938" style="stroke:#181818;stroke-width:1;"/><line style="stroke:#181818;stroke-width:1;" x1="939.9121" x2="2075.2305" y1="460.0938" y2="460.0938"/><text fill="#000000" font-family="sans-serif" font-size="20" lengthAdjust="spacing" textLength="255.9082" x="946.9121" y="453.377">setStatus(Show Proposal)</text></g><g class="message" data-participant-1="ShowProposal" data-participant-2="SendShowProposalController"><polygon fill="#181818" points="950.9121,470.0938,940.9121,474.0938,950.9121,478.0938,946.9121,474.0938" style="stroke:#181818;stroke-width:1;"/><line style="stroke:#181818;stroke-width:1;" x1="944.9121" x2="2085.2305" y1="474.0938" y2="474.0938"/></g><g class="message" data-participant-1="SendShowProposalController" data-participant-2="SendShowProposalUI"><polygon fill="#181818" points="478.3184,484.0938,468.3184,488.0938,478.3184,492.0938,474.3184,488.0938" style="stroke:#181818;stroke-width:1;"/><line style="stroke:#181818;stroke-width:1;" x1="472.3184" x2="928.9121" y1="488.0938" y2="488.0938"/></g><g class="message" data-participant-1="SendShowProposalUI" data-participant-2="SendShowProposalController"><polygon fill="#181818" points="917.9121,521.375,927.9121,525.375,917.9121,529.375,921.9121,525.375" style="stroke:#181818;stroke-width:1;"/><line style="stroke:#181818;stroke-width:1;" x1="467.3184" x2="923.9121" y1="525.375" y2="525.375"/><text fill="#000000" font-family="sans-serif" font-size="20" lengthAdjust="spacing" textLength="329.1504" x="474.3184" y="518.6582">createDocument(Show Proposal)</text></g><g class="message" data-participant-1="SendShowProposalController" data-participant-2="SendShowProposalUI"><polygon fill="#181818" points="478.3184,535.375,468.3184,539.375,478.3184,543.375,474.3184,539.375" style="stroke:#181818;stroke-width:1;"/><line style="stroke:#181818;stroke-width:1;" x1="472.3184" x2="933.9121" y1="539.375" y2="539.375"/></g><g class="message" data-participant-1="SendShowProposalUI" data-participant-2="SendShowProposalAction"><polygon fill="#181818" points="149.5039,549.375,139.5039,553.375,149.5039,557.375,145.5039,553.375" style="stroke:#181818;stroke-width:1;"/><line style="stroke:#181818;stroke-width:1;" x1="143.5039" x2="461.3184" y1="553.375" y2="553.375"/></g><!--SRC=[dLLDRy8m3BttL-GsE31DE-u0GfkGTaEhzWEYr42qa5I9opv-_To93wTDGqSkbMpdFVlPJiE7jhNqSc-S-e1ALB2HZS6LirZg7n2F3qL1VjHArzAYAC5MvSvzhhshNP1cgL0xcmrvVyswdudAEsF0Hs5hy4471AkWZO0lZDpBkYu1KTjjYEnlGA0QdVzUITL-Ocx6UuaiYdHLOZPF52EU4iR9z3wGOJ8j11rYrWU9a9AYzIT04rGNOOXI6iDzuSYKPMFAdc8p79H1NtDYzYUTD73MzYJY2OMrXgvl0NizwS14HV36TeCuyeoOUi34fpmGJ8wXFoBTq3xkBAxhQcOZMd4w5MHhptSifS16ssePZmkJ8r7RV60lKcgoR8Trl4naUj_EjQLfHmh8Khd6az5mQCSD3VOPuExW34elf1DDe5ljYoaWA6Tsu1SBtjCRTbljfDq2TvSeiGcJrYHEjccE9PuAxY7y07WLC2bbnCWnnq_uG9D6ZlV0-tchpd_3_E9KimUBNJ5wYtbpQhpc_p_9wKAE_zaH59H8KVm2]--></g></svg>