<svg xmlns="http://www.w3.org/2000/svg" xmlns:xlink="http://www.w3.org/1999/xlink" contentStyleType="text/css" data-diagram-type="SEQUENCE" height="795px" preserveAspectRatio="none" style="width:1667px;height:795px;background:#FFFFFF;" version="1.1" viewBox="0 0 1667 795" width="1667px" zoomAndPan="magnify"><title>SD - Register X</title><defs/><g><text fill="#000000" font-family="sans-serif" font-size="14" font-weight="bold" lengthAdjust="spacing" textLength="119.4512" x="773.0938" y="27.9951">SD - Register X</text><g><title>RegisterXUI</title><rect fill="#FFFFFF" height="615.2188" style="stroke:#181818;stroke-width:1;" width="10" x="317.7041" y="119.8594"/></g><g><title>RegisterXController</title><rect fill="#FFFFFF" height="563.9375" style="stroke:#181818;stroke-width:1;" width="10" x="531.1865" y="157.1406"/></g><g><title>PersistenceContext</title><rect fill="#FFFFFF" height="237.6875" style="stroke:#181818;stroke-width:1;" width="10" x="815.626" y="194.4219"/></g><g><title>AppSettings</title><rect fill="#FFFFFF" height="88.5625" style="stroke:#181818;stroke-width:1;" width="10" x="1099.9775" y="231.7031"/></g><g><title>RepositoryFactory</title><rect fill="#FFFFFF" height="37.2813" style="stroke:#181818;stroke-width:1;" width="10" x="1275.5986" y="357.5469"/></g><g><title>RepositoryFactory</title><rect fill="#FFFFFF" height="111.8438" style="stroke:#181818;stroke-width:1;" width="10" x="1275.5986" y="469.3906"/></g><g><title>XRepository</title><rect fill="#FFFFFF" height="37.2813" style="stroke:#181818;stroke-width:1;" width="10" x="1498.8467" y="506.6719"/></g><g><title>XRepository</title><rect fill="#FFFFFF" height="14" style="stroke:#181818;stroke-width:1;" width="10" x="1498.8467" y="669.7969"/></g><g><title>XClass</title><rect fill="#FFFFFF" height="14" style="stroke:#181818;stroke-width:1;" width="10" x="1616.4795" y="618.5156"/></g><g><title>RegisterXAction</title><rect fill="#000000" fill-opacity="0.00000" height="672.5" width="8" x="87.9658" y="80.5781"/><line style="stroke:#181818;stroke-width:0.5;stroke-dasharray:5.0,5.0;" x1="91" x2="91" y1="80.5781" y2="753.0781"/></g><g><title>RegisterXUI</title><rect fill="#000000" fill-opacity="0.00000" height="672.5" width="8" x="318.7041" y="80.5781"/><line style="stroke:#181818;stroke-width:0.5;stroke-dasharray:5.0,5.0;" x1="321.9639" x2="321.9639" y1="80.5781" y2="753.0781"/></g><g><title>RegisterXController</title><rect fill="#000000" fill-opacity="0.00000" height="672.5" width="8" x="532.1865" y="80.5781"/><line style="stroke:#181818;stroke-width:0.5;stroke-dasharray:5.0,5.0;" x1="535.3057" x2="535.3057" y1="80.5781" y2="753.0781"/></g><g><title>PersistenceContext</title><rect fill="#000000" fill-opacity="0.00000" height="672.5" width="8" x="816.626" y="80.5781"/><line style="stroke:#181818;stroke-width:0.5;stroke-dasharray:5.0,5.0;" x1="819.7217" x2="819.7217" y1="80.5781" y2="753.0781"/></g><g><title>AppSettings</title><rect fill="#000000" fill-opacity="0.00000" height="672.5" width="8" x="1100.9775" y="80.5781"/><line style="stroke:#181818;stroke-width:0.5;stroke-dasharray:5.0,5.0;" x1="1104.4258" x2="1104.4258" y1="80.5781" y2="753.0781"/></g><g><title>RepositoryFactory</title><rect fill="#000000" fill-opacity="0.00000" height="672.5" width="8" x="1276.5986" y="80.5781"/><line style="stroke:#181818;stroke-width:0.5;stroke-dasharray:5.0,5.0;" x1="1280.5293" x2="1280.5293" y1="80.5781" y2="753.0781"/></g><g><title>XRepository</title><rect fill="#000000" fill-opacity="0.00000" height="672.5" width="8" x="1499.8467" y="80.5781"/><line style="stroke:#181818;stroke-width:0.5;stroke-dasharray:5.0,5.0;" x1="1503.373" x2="1503.373" y1="80.5781" y2="753.0781"/></g><g><title>XClass</title><rect fill="#000000" fill-opacity="0.00000" height="672.5" width="8" x="1617.4795" y="80.5781"/><line style="stroke:#181818;stroke-width:0.5;stroke-dasharray:5.0,5.0;" x1="1621.3203" x2="1621.3203" y1="80.5781" y2="753.0781"/></g><g class="participant participant-head" data-participant="RegisterXAction"><rect fill="#E2E2F0" height="37.2813" rx="2.5" ry="2.5" style="stroke:#181818;stroke-width:0.5;" width="173.9316" x="5" y="42.2969"/><text fill="#000000" font-family="sans-serif" font-size="20" lengthAdjust="spacing" textLength="159.9316" x="12" y="67.8613">RegisterXAction</text></g><g class="participant participant-tail" data-participant="RegisterXAction"><rect fill="#E2E2F0" height="37.2813" rx="2.5" ry="2.5" style="stroke:#181818;stroke-width:0.5;" width="173.9316" x="5" y="752.0781"/><text fill="#000000" font-family="sans-serif" font-size="20" lengthAdjust="spacing" textLength="159.9316" x="12" y="777.6426">RegisterXAction</text></g><g class="participant participant-head" data-participant="RegisterXUI"><rect fill="#E2E2F0" height="37.2813" rx="2.5" ry="2.5" style="stroke:#181818;stroke-width:0.5;" width="131.4805" x="256.9639" y="42.2969"/><text fill="#000000" font-family="sans-serif" font-size="20" lengthAdjust="spacing" textLength="117.4805" x="263.9639" y="67.8613">RegisterXUI</text></g><g class="participant participant-tail" data-participant="RegisterXUI"><rect fill="#E2E2F0" height="37.2813" rx="2.5" ry="2.5" style="stroke:#181818;stroke-width:0.5;" width="131.4805" x="256.9639" y="752.0781"/><text fill="#000000" font-family="sans-serif" font-size="20" lengthAdjust="spacing" textLength="117.4805" x="263.9639" y="777.6426">RegisterXUI</text></g><g class="participant participant-head" data-participant="RegisterXController"><rect fill="#E2E2F0" height="37.2813" rx="2.5" ry="2.5" style="stroke:#181818;stroke-width:0.5;" width="209.7617" x="431.3057" y="42.2969"/><text fill="#000000" font-family="sans-serif" font-size="20" lengthAdjust="spacing" textLength="195.7617" x="438.3057" y="67.8613">RegisterXController</text></g><g class="participant participant-tail" data-participant="RegisterXController"><rect fill="#E2E2F0" height="37.2813" rx="2.5" ry="2.5" style="stroke:#181818;stroke-width:0.5;" width="209.7617" x="431.3057" y="752.0781"/><text fill="#000000" font-family="sans-serif" font-size="20" lengthAdjust="spacing" textLength="195.7617" x="438.3057" y="777.6426">RegisterXController</text></g><g class="participant participant-head" data-participant="PersistenceContext"><rect fill="#E2E2F0" height="37.2813" rx="2.5" ry="2.5" style="stroke:#181818;stroke-width:0.5;" width="207.8086" x="716.7217" y="42.2969"/><text fill="#000000" font-family="sans-serif" font-size="20" lengthAdjust="spacing" textLength="193.8086" x="723.7217" y="67.8613">PersistenceContext</text></g><g class="participant participant-tail" data-participant="PersistenceContext"><rect fill="#E2E2F0" height="37.2813" rx="2.5" ry="2.5" style="stroke:#181818;stroke-width:0.5;" width="207.8086" x="716.7217" y="752.0781"/><text fill="#000000" font-family="sans-serif" font-size="20" lengthAdjust="spacing" textLength="193.8086" x="723.7217" y="777.6426">PersistenceContext</text></g><g class="participant participant-head" data-participant="AppSettings"><rect fill="#E2E2F0" height="37.2813" rx="2.5" ry="2.5" style="stroke:#181818;stroke-width:0.5;" width="135.1035" x="1037.4258" y="42.2969"/><text fill="#000000" font-family="sans-serif" font-size="20" lengthAdjust="spacing" textLength="121.1035" x="1044.4258" y="67.8613">AppSettings</text></g><g class="participant participant-tail" data-participant="AppSettings"><rect fill="#E2E2F0" height="37.2813" rx="2.5" ry="2.5" style="stroke:#181818;stroke-width:0.5;" width="135.1035" x="1037.4258" y="752.0781"/><text fill="#000000" font-family="sans-serif" font-size="20" lengthAdjust="spacing" textLength="121.1035" x="1044.4258" y="777.6426">AppSettings</text></g><g class="participant participant-head" data-participant="RepositoryFactory"><rect fill="#E2E2F0" height="37.2813" rx="2.5" ry="2.5" style="stroke:#181818;stroke-width:0.5;" width="196.1387" x="1182.5293" y="42.2969"/><text fill="#000000" font-family="sans-serif" font-size="20" lengthAdjust="spacing" textLength="182.1387" x="1189.5293" y="67.8613">RepositoryFactory</text></g><g class="participant participant-tail" data-participant="RepositoryFactory"><rect fill="#E2E2F0" height="37.2813" rx="2.5" ry="2.5" style="stroke:#181818;stroke-width:0.5;" width="196.1387" x="1182.5293" y="752.0781"/><text fill="#000000" font-family="sans-serif" font-size="20" lengthAdjust="spacing" textLength="182.1387" x="1189.5293" y="777.6426">RepositoryFactory</text></g><g class="participant participant-head" data-participant="XRepository"><rect fill="#E2E2F0" height="37.2813" rx="2.5" ry="2.5" style="stroke:#181818;stroke-width:0.5;" width="134.9473" x="1436.373" y="42.2969"/><text fill="#000000" font-family="sans-serif" font-size="20" lengthAdjust="spacing" textLength="120.9473" x="1443.373" y="67.8613">XRepository</text></g><g class="participant participant-tail" data-participant="XRepository"><rect fill="#E2E2F0" height="37.2813" rx="2.5" ry="2.5" style="stroke:#181818;stroke-width:0.5;" width="134.9473" x="1436.373" y="752.0781"/><text fill="#000000" font-family="sans-serif" font-size="20" lengthAdjust="spacing" textLength="120.9473" x="1443.373" y="777.6426">XRepository</text></g><g class="participant participant-head" data-participant="XClass"><rect fill="#E2E2F0" height="37.2813" rx="2.5" ry="2.5" style="stroke:#181818;stroke-width:0.5;" width="80.3184" x="1581.3203" y="42.2969"/><text fill="#000000" font-family="sans-serif" font-size="20" lengthAdjust="spacing" textLength="66.3184" x="1588.3203" y="67.8613">XClass</text></g><g class="participant participant-tail" data-participant="XClass"><rect fill="#E2E2F0" height="37.2813" rx="2.5" ry="2.5" style="stroke:#181818;stroke-width:0.5;" width="80.3184" x="1581.3203" y="752.0781"/><text fill="#000000" font-family="sans-serif" font-size="20" lengthAdjust="spacing" textLength="66.3184" x="1588.3203" y="777.6426">XClass</text></g><g><title>RegisterXUI</title><rect fill="#FFFFFF" height="615.2188" style="stroke:#181818;stroke-width:1;" width="10" x="317.7041" y="119.8594"/></g><g><title>RegisterXController</title><rect fill="#FFFFFF" height="563.9375" style="stroke:#181818;stroke-width:1;" width="10" x="531.1865" y="157.1406"/></g><g><title>PersistenceContext</title><rect fill="#FFFFFF" height="237.6875" style="stroke:#181818;stroke-width:1;" width="10" x="815.626" y="194.4219"/></g><g><title>AppSettings</title><rect fill="#FFFFFF" height="88.5625" style="stroke:#181818;stroke-width:1;" width="10" x="1099.9775" y="231.7031"/></g><g><title>RepositoryFactory</title><rect fill="#FFFFFF" height="37.2813" style="stroke:#181818;stroke-width:1;" width="10" x="1275.5986" y="357.5469"/></g><g><title>RepositoryFactory</title><rect fill="#FFFFFF" height="111.8438" style="stroke:#181818;stroke-width:1;" width="10" x="1275.5986" y="469.3906"/></g><g><title>XRepository</title><rect fill="#FFFFFF" height="37.2813" style="stroke:#181818;stroke-width:1;" width="10" x="1498.8467" y="506.6719"/></g><g><title>XRepository</title><rect fill="#FFFFFF" height="14" style="stroke:#181818;stroke-width:1;" width="10" x="1498.8467" y="669.7969"/></g><g><title>XClass</title><rect fill="#FFFFFF" height="14" style="stroke:#181818;stroke-width:1;" width="10" x="1616.4795" y="618.5156"/></g><g class="message" data-participant-1="RegisterXAction" data-participant-2="RegisterXUI"><polygon fill="#181818" points="305.7041,115.8594,315.7041,119.8594,305.7041,123.8594,309.7041,119.8594" style="stroke:#181818;stroke-width:1;"/><line style="stroke:#181818;stroke-width:1;" x1="91.9658" x2="311.7041" y1="119.8594" y2="119.8594"/><text fill="#000000" font-family="sans-serif" font-size="20" lengthAdjust="spacing" textLength="206.7383" x="98.9658" y="113.1426">RegisterXUI().show()</text></g><g class="message" data-participant-1="RegisterXUI" data-participant-2="RegisterXController"><polygon fill="#181818" points="519.1865,153.1406,529.1865,157.1406,519.1865,161.1406,523.1865,157.1406" style="stroke:#181818;stroke-width:1;"/><line style="stroke:#181818;stroke-width:1;" x1="327.7041" x2="525.1865" y1="157.1406" y2="157.1406"/><text fill="#000000" font-family="sans-serif" font-size="20" lengthAdjust="spacing" textLength="112.5488" x="334.7041" y="150.4238">RegisterX()</text></g><g class="message" data-participant-1="RegisterXController" data-participant-2="PersistenceContext"><polygon fill="#181818" points="803.626,190.4219,813.626,194.4219,803.626,198.4219,807.626,194.4219" style="stroke:#181818;stroke-width:1;"/><line style="stroke:#181818;stroke-width:1;" x1="541.1865" x2="809.626" y1="194.4219" y2="194.4219"/><text fill="#000000" font-family="sans-serif" font-size="20" lengthAdjust="spacing" textLength="133.623" x="548.1865" y="187.7051">repositories()</text></g><g class="message" data-participant-1="PersistenceContext" data-participant-2="AppSettings"><polygon fill="#181818" points="1087.9775,227.7031,1097.9775,231.7031,1087.9775,235.7031,1091.9775,231.7031" style="stroke:#181818;stroke-width:1;"/><line style="stroke:#181818;stroke-width:1;" x1="825.626" x2="1093.9775" y1="231.7031" y2="231.7031"/><text fill="#000000" font-family="sans-serif" font-size="20" lengthAdjust="spacing" textLength="100.332" x="832.626" y="224.9863">instance()</text></g><g class="message" data-participant-1="AppSettings" data-participant-2="PersistenceContext"><polygon fill="#181818" points="836.626,241.7031,826.626,245.7031,836.626,249.7031,832.626,245.7031" style="stroke:#181818;stroke-width:1;"/><line style="stroke:#181818;stroke-width:1;stroke-dasharray:2.0,2.0;" x1="830.626" x2="1098.9775" y1="245.7031" y2="245.7031"/></g><g class="message" data-participant-1="PersistenceContext" data-participant-2="AppSettings"><polygon fill="#181818" points="1087.9775,278.9844,1097.9775,282.9844,1087.9775,286.9844,1091.9775,282.9844" style="stroke:#181818;stroke-width:1;"/><line style="stroke:#181818;stroke-width:1;" x1="825.626" x2="1093.9775" y1="282.9844" y2="282.9844"/><text fill="#000000" font-family="sans-serif" font-size="20" lengthAdjust="spacing" textLength="230.5859" x="832.626" y="276.2676">getRepositoryFactory()</text></g><g class="message" data-participant-1="AppSettings" data-participant-2="PersistenceContext"><polygon fill="#181818" points="836.626,316.2656,826.626,320.2656,836.626,324.2656,832.626,320.2656" style="stroke:#181818;stroke-width:1;"/><line style="stroke:#181818;stroke-width:1;stroke-dasharray:2.0,2.0;" x1="830.626" x2="1103.9775" y1="320.2656" y2="320.2656"/><text fill="#000000" font-family="sans-serif" font-size="20" lengthAdjust="spacing" textLength="250.3516" x="842.626" y="313.5488">return factoryClassName</text></g><g class="message" data-participant-1="PersistenceContext" data-participant-2="RepositoryFactory"><polygon fill="#181818" points="1263.5986,353.5469,1273.5986,357.5469,1263.5986,361.5469,1267.5986,357.5469" style="stroke:#181818;stroke-width:1;"/><line style="stroke:#181818;stroke-width:1;" x1="825.626" x2="1269.5986" y1="357.5469" y2="357.5469"/><text fill="#000000" font-family="sans-serif" font-size="20" lengthAdjust="spacing" textLength="79.5313" x="832.626" y="350.8301">create()</text></g><g class="message" data-participant-1="RepositoryFactory" data-participant-2="PersistenceContext"><polygon fill="#181818" points="836.626,390.8281,826.626,394.8281,836.626,398.8281,832.626,394.8281" style="stroke:#181818;stroke-width:1;"/><line style="stroke:#181818;stroke-width:1;stroke-dasharray:2.0,2.0;" x1="830.626" x2="1279.5986" y1="394.8281" y2="394.8281"/><text fill="#000000" font-family="sans-serif" font-size="20" lengthAdjust="spacing" textLength="250.4395" x="842.626" y="388.1113">return RepositoryFactory</text></g><g class="message" data-participant-1="PersistenceContext" data-participant-2="RegisterXController"><polygon fill="#181818" points="552.1865,428.1094,542.1865,432.1094,552.1865,436.1094,548.1865,432.1094" style="stroke:#181818;stroke-width:1;"/><line style="stroke:#181818;stroke-width:1;stroke-dasharray:2.0,2.0;" x1="546.1865" x2="819.626" y1="432.1094" y2="432.1094"/><text fill="#000000" font-family="sans-serif" font-size="20" lengthAdjust="spacing" textLength="250.4395" x="558.1865" y="425.3926">return RepositoryFactory</text></g><g class="message" data-participant-1="RegisterXController" data-participant-2="RepositoryFactory"><polygon fill="#181818" points="1263.5986,465.3906,1273.5986,469.3906,1263.5986,473.3906,1267.5986,469.3906" style="stroke:#181818;stroke-width:1;"/><line style="stroke:#181818;stroke-width:1;" x1="541.1865" x2="1269.5986" y1="469.3906" y2="469.3906"/><text fill="#000000" font-family="sans-serif" font-size="20" lengthAdjust="spacing" textLength="134.6875" x="548.1865" y="462.6738">xRepository()</text></g><g class="message" data-participant-1="RepositoryFactory" data-participant-2="XRepository"><polygon fill="#181818" points="1486.8467,502.6719,1496.8467,506.6719,1486.8467,510.6719,1490.8467,506.6719" style="stroke:#181818;stroke-width:1;"/><line style="stroke:#181818;stroke-width:1;" x1="1285.5986" x2="1492.8467" y1="506.6719" y2="506.6719"/><text fill="#000000" font-family="sans-serif" font-size="20" lengthAdjust="spacing" textLength="79.5313" x="1292.5986" y="499.9551">create()</text></g><g class="message" data-participant-1="XRepository" data-participant-2="RepositoryFactory"><polygon fill="#181818" points="1296.5986,539.9531,1286.5986,543.9531,1296.5986,547.9531,1292.5986,543.9531" style="stroke:#181818;stroke-width:1;"/><line style="stroke:#181818;stroke-width:1;stroke-dasharray:2.0,2.0;" x1="1290.5986" x2="1502.8467" y1="543.9531" y2="543.9531"/><text fill="#000000" font-family="sans-serif" font-size="20" lengthAdjust="spacing" textLength="189.248" x="1302.5986" y="537.2363">return XRepository</text></g><g class="message" data-participant-1="RepositoryFactory" data-participant-2="RegisterXController"><polygon fill="#181818" points="552.1865,577.2344,542.1865,581.2344,552.1865,585.2344,548.1865,581.2344" style="stroke:#181818;stroke-width:1;"/><line style="stroke:#181818;stroke-width:1;stroke-dasharray:2.0,2.0;" x1="546.1865" x2="1279.5986" y1="581.2344" y2="581.2344"/><text fill="#000000" font-family="sans-serif" font-size="20" lengthAdjust="spacing" textLength="189.248" x="558.1865" y="574.5176">return XRepository</text></g><g class="message" data-participant-1="RegisterXController" data-participant-2="XClass"><polygon fill="#181818" points="1604.4795,614.5156,1614.4795,618.5156,1604.4795,622.5156,1608.4795,618.5156" style="stroke:#181818;stroke-width:1;"/><line style="stroke:#181818;stroke-width:1;" x1="541.1865" x2="1610.4795" y1="618.5156" y2="618.5156"/><text fill="#000000" font-family="sans-serif" font-size="20" lengthAdjust="spacing" textLength="239.375" x="548.1865" y="611.7988">newX = create(params)</text></g><g class="message" data-participant-1="XClass" data-participant-2="RegisterXController"><polygon fill="#181818" points="552.1865,628.5156,542.1865,632.5156,552.1865,636.5156,548.1865,632.5156" style="stroke:#181818;stroke-width:1;"/><line style="stroke:#181818;stroke-width:1;stroke-dasharray:2.0,2.0;" x1="546.1865" x2="1620.4795" y1="632.5156" y2="632.5156"/></g><g class="message" data-participant-1="RegisterXController" data-participant-2="XRepository"><polygon fill="#181818" points="1486.8467,665.7969,1496.8467,669.7969,1486.8467,673.7969,1490.8467,669.7969" style="stroke:#181818;stroke-width:1;"/><line style="stroke:#181818;stroke-width:1;" x1="541.1865" x2="1492.8467" y1="669.7969" y2="669.7969"/><text fill="#000000" font-family="sans-serif" font-size="20" lengthAdjust="spacing" textLength="117.4609" x="548.1865" y="663.0801">save(newX)</text></g><g class="message" data-participant-1="XRepository" data-participant-2="RegisterXController"><polygon fill="#181818" points="552.1865,679.7969,542.1865,683.7969,552.1865,687.7969,548.1865,683.7969" style="stroke:#181818;stroke-width:1;"/><line style="stroke:#181818;stroke-width:1;stroke-dasharray:2.0,2.0;" x1="546.1865" x2="1502.8467" y1="683.7969" y2="683.7969"/></g><g class="message" data-participant-1="RegisterXController" data-participant-2="RegisterXUI"><polygon fill="#181818" points="338.7041,717.0781,328.7041,721.0781,338.7041,725.0781,334.7041,721.0781" style="stroke:#181818;stroke-width:1;"/><line style="stroke:#181818;stroke-width:1;stroke-dasharray:2.0,2.0;" x1="332.7041" x2="535.1865" y1="721.0781" y2="721.0781"/><text fill="#000000" font-family="sans-serif" font-size="20" lengthAdjust="spacing" textLength="179.4824" x="344.7041" y="714.3613">Register message</text></g><g class="message" data-participant-1="RegisterXUI" data-participant-2="RegisterXAction"><polygon fill="#181818" points="102.9658,731.0781,92.9658,735.0781,102.9658,739.0781,98.9658,735.0781" style="stroke:#181818;stroke-width:1;"/><line style="stroke:#181818;stroke-width:1;stroke-dasharray:2.0,2.0;" x1="96.9658" x2="321.7041" y1="735.0781" y2="735.0781"/></g><!--SRC=[fLLDQyCm3BtdL_ZO7ZB6ZeCLIaTXbp4M1hcQLCrCKoVOwiVsw-SqIIFNIhDkkPHQrdjFJqQo6wKhQUIsABCDhCGArd9NuBBKcAXl40_tKOGA2n39iuZ5E-JA8XYHHf5BGvMfIceydwVp35Mf-TZ72t- -S6IcB0emNlmDZAqlw0pg6t14BpolgWGGbSxj1MnLMeMb-LhAhFxnecaVziyNXRGsYYuA4V6CwXUFzDzaUcS_oyDa6ZaYjPS8NgqqZyBqvL8uXoBS5o8HTqJxSL2E8JJC4PYkNWMsvV1u69UxEmoUOo6-EtYbBKfteOKEyMcRkY25Y5dXDsd80OEcarB7sKusuSveiMwoJu_XLMxX3BA2gnNnCWDLZYWpu42uJeGFj-_t9SvO7SDOf93XIrmvWq_u5agcqsElcZFns1_-syaPdGbN6qHdHnUakV60sjOWBfrOmuNvnbzjmmXBQCsO_yraT0GQ3gbuwlmvBGtBkTHCqhD1JVg0RjQ8TXIFwVAwPkKU9hN2F_VjTze8r8Z2mSqXjc2jp9lPuhKcbE3j48hOxbaktQsU7m00]--></g></svg>