<svg xmlns="http://www.w3.org/2000/svg" xmlns:xlink="http://www.w3.org/1999/xlink" contentStyleType="text/css" data-diagram-type="SEQUENCE" height="497px" preserveAspectRatio="none" style="width:1256px;height:497px;background:#FFFFFF;" version="1.1" viewBox="0 0 1256 497" width="1256px" zoomAndPan="magnify"><defs/><g><g><title>ListXUI</title><rect fill="#FFFFFF" height="354.25" style="stroke:#181818;stroke-width:1;" width="10" x="245.2822" y="82.5625"/></g><g><title>ListXController</title><rect fill="#FFFFFF" height="302.9688" style="stroke:#181818;stroke-width:1;" width="10" x="377.6221" y="119.8438"/></g><g><title>AppSettings</title><rect fill="#FFFFFF" height="65.2813" style="stroke:#181818;stroke-width:1;" width="10" x="826.8525" y="231.6875"/></g><g><title>RepositoryFactory</title><rect fill="#FFFFFF" height="176.8438" style="stroke:#181818;stroke-width:1;" width="10" x="1002.4736" y="268.9688"/></g><g><title>XRepository</title><rect fill="#FFFFFF" height="14" style="stroke:#181818;stroke-width:1;" width="10" x="1178.0166" y="371.5313"/></g><g><title>ListXAction</title><rect fill="#000000" fill-opacity="0.00000" height="411.5313" width="8" x="63.8252" y="43.2813"/><line style="stroke:#181818;stroke-width:0.5;stroke-dasharray:5.0,5.0;" x1="67" x2="67" y1="43.2813" y2="454.8125"/></g><g><title>ListXUI</title><rect fill="#000000" fill-opacity="0.00000" height="411.5313" width="8" x="246.2822" y="43.2813"/><line style="stroke:#181818;stroke-width:0.5;stroke-dasharray:5.0,5.0;" x1="249.6826" x2="249.6826" y1="43.2813" y2="454.8125"/></g><g><title>ListXController</title><rect fill="#000000" fill-opacity="0.00000" height="411.5313" width="8" x="378.6221" y="43.2813"/><line style="stroke:#181818;stroke-width:0.5;stroke-dasharray:5.0,5.0;" x1="381.8818" x2="381.8818" y1="43.2813" y2="454.8125"/></g><g><title>PersistenceContext</title><rect fill="#000000" fill-opacity="0.00000" height="411.5313" width="8" x="573.2666" y="43.2813"/><line style="stroke:#181818;stroke-width:0.5;stroke-dasharray:5.0,5.0;" x1="576.3623" x2="576.3623" y1="43.2813" y2="454.8125"/></g><g><title>AppSettings</title><rect fill="#000000" fill-opacity="0.00000" height="411.5313" width="8" x="827.8525" y="43.2813"/><line style="stroke:#181818;stroke-width:0.5;stroke-dasharray:5.0,5.0;" x1="831.3008" x2="831.3008" y1="43.2813" y2="454.8125"/></g><g><title>RepositoryFactory</title><rect fill="#000000" fill-opacity="0.00000" height="411.5313" width="8" x="1003.4736" y="43.2813"/><line style="stroke:#181818;stroke-width:0.5;stroke-dasharray:5.0,5.0;" x1="1007.4043" x2="1007.4043" y1="43.2813" y2="454.8125"/></g><g><title>XRepository</title><rect fill="#000000" fill-opacity="0.00000" height="411.5313" width="8" x="1179.0166" y="43.2813"/><line style="stroke:#181818;stroke-width:0.5;stroke-dasharray:5.0,5.0;" x1="1182.543" x2="1182.543" y1="43.2813" y2="454.8125"/></g><g class="participant participant-head" data-participant="ListXAction"><rect fill="#E2E2F0" height="37.2813" rx="2.5" ry="2.5" style="stroke:#181818;stroke-width:0.5;" width="125.6504" x="5" y="5"/><text fill="#000000" font-family="sans-serif" font-size="20" lengthAdjust="spacing" textLength="111.6504" x="12" y="30.5645">ListXAction</text></g><g class="participant participant-tail" data-participant="ListXAction"><rect fill="#E2E2F0" height="37.2813" rx="2.5" ry="2.5" style="stroke:#181818;stroke-width:0.5;" width="125.6504" x="5" y="453.8125"/><text fill="#000000" font-family="sans-serif" font-size="20" lengthAdjust="spacing" textLength="111.6504" x="12" y="479.377">ListXAction</text></g><g class="participant participant-head" data-participant="ListXUI"><rect fill="#E2E2F0" height="37.2813" rx="2.5" ry="2.5" style="stroke:#181818;stroke-width:0.5;" width="83.1992" x="208.6826" y="5"/><text fill="#000000" font-family="sans-serif" font-size="20" lengthAdjust="spacing" textLength="69.1992" x="215.6826" y="30.5645">ListXUI</text></g><g class="participant participant-tail" data-participant="ListXUI"><rect fill="#E2E2F0" height="37.2813" rx="2.5" ry="2.5" style="stroke:#181818;stroke-width:0.5;" width="83.1992" x="208.6826" y="453.8125"/><text fill="#000000" font-family="sans-serif" font-size="20" lengthAdjust="spacing" textLength="69.1992" x="215.6826" y="479.377">ListXUI</text></g><g class="participant participant-head" data-participant="ListXController"><rect fill="#E2E2F0" height="37.2813" rx="2.5" ry="2.5" style="stroke:#181818;stroke-width:0.5;" width="161.4805" x="301.8818" y="5"/><text fill="#000000" font-family="sans-serif" font-size="20" lengthAdjust="spacing" textLength="147.4805" x="308.8818" y="30.5645">ListXController</text></g><g class="participant participant-tail" data-participant="ListXController"><rect fill="#E2E2F0" height="37.2813" rx="2.5" ry="2.5" style="stroke:#181818;stroke-width:0.5;" width="161.4805" x="301.8818" y="453.8125"/><text fill="#000000" font-family="sans-serif" font-size="20" lengthAdjust="spacing" textLength="147.4805" x="308.8818" y="479.377">ListXController</text></g><g class="participant participant-head" data-participant="PersistenceContext"><rect fill="#E2E2F0" height="37.2813" rx="2.5" ry="2.5" style="stroke:#181818;stroke-width:0.5;" width="207.8086" x="473.3623" y="5"/><text fill="#000000" font-family="sans-serif" font-size="20" lengthAdjust="spacing" textLength="193.8086" x="480.3623" y="30.5645">PersistenceContext</text></g><g class="participant participant-tail" data-participant="PersistenceContext"><rect fill="#E2E2F0" height="37.2813" rx="2.5" ry="2.5" style="stroke:#181818;stroke-width:0.5;" width="207.8086" x="473.3623" y="453.8125"/><text fill="#000000" font-family="sans-serif" font-size="20" lengthAdjust="spacing" textLength="193.8086" x="480.3623" y="479.377">PersistenceContext</text></g><g class="participant participant-head" data-participant="AppSettings"><rect fill="#E2E2F0" height="37.2813" rx="2.5" ry="2.5" style="stroke:#181818;stroke-width:0.5;" width="135.1035" x="764.3008" y="5"/><text fill="#000000" font-family="sans-serif" font-size="20" lengthAdjust="spacing" textLength="121.1035" x="771.3008" y="30.5645">AppSettings</text></g><g class="participant participant-tail" data-participant="AppSettings"><rect fill="#E2E2F0" height="37.2813" rx="2.5" ry="2.5" style="stroke:#181818;stroke-width:0.5;" width="135.1035" x="764.3008" y="453.8125"/><text fill="#000000" font-family="sans-serif" font-size="20" lengthAdjust="spacing" textLength="121.1035" x="771.3008" y="479.377">AppSettings</text></g><g class="participant participant-head" data-participant="RepositoryFactory"><rect fill="#E2E2F0" height="37.2813" rx="2.5" ry="2.5" style="stroke:#181818;stroke-width:0.5;" width="196.1387" x="909.4043" y="5"/><text fill="#000000" font-family="sans-serif" font-size="20" lengthAdjust="spacing" textLength="182.1387" x="916.4043" y="30.5645">RepositoryFactory</text></g><g class="participant participant-tail" data-participant="RepositoryFactory"><rect fill="#E2E2F0" height="37.2813" rx="2.5" ry="2.5" style="stroke:#181818;stroke-width:0.5;" width="196.1387" x="909.4043" y="453.8125"/><text fill="#000000" font-family="sans-serif" font-size="20" lengthAdjust="spacing" textLength="182.1387" x="916.4043" y="479.377">RepositoryFactory</text></g><g class="participant participant-head" data-participant="XRepository"><rect fill="#E2E2F0" height="37.2813" rx="2.5" ry="2.5" style="stroke:#181818;stroke-width:0.5;" width="134.9473" x="1115.543" y="5"/><text fill="#000000" font-family="sans-serif" font-size="20" lengthAdjust="spacing" textLength="120.9473" x="1122.543" y="30.5645">XRepository</text></g><g class="participant participant-tail" data-participant="XRepository"><rect fill="#E2E2F0" height="37.2813" rx="2.5" ry="2.5" style="stroke:#181818;stroke-width:0.5;" width="134.9473" x="1115.543" y="453.8125"/><text fill="#000000" font-family="sans-serif" font-size="20" lengthAdjust="spacing" textLength="120.9473" x="1122.543" y="479.377">XRepository</text></g><g><title>ListXUI</title><rect fill="#FFFFFF" height="354.25" style="stroke:#181818;stroke-width:1;" width="10" x="245.2822" y="82.5625"/></g><g><title>ListXController</title><rect fill="#FFFFFF" height="302.9688" style="stroke:#181818;stroke-width:1;" width="10" x="377.6221" y="119.8438"/></g><g><title>AppSettings</title><rect fill="#FFFFFF" height="65.2813" style="stroke:#181818;stroke-width:1;" width="10" x="826.8525" y="231.6875"/></g><g><title>RepositoryFactory</title><rect fill="#FFFFFF" height="176.8438" style="stroke:#181818;stroke-width:1;" width="10" x="1002.4736" y="268.9688"/></g><g><title>XRepository</title><rect fill="#FFFFFF" height="14" style="stroke:#181818;stroke-width:1;" width="10" x="1178.0166" y="371.5313"/></g><g class="message" data-participant-1="ListXAction" data-participant-2="ListXUI"><polygon fill="#181818" points="233.2822,78.5625,243.2822,82.5625,233.2822,86.5625,237.2822,82.5625" style="stroke:#181818;stroke-width:1;"/><line style="stroke:#181818;stroke-width:1;" x1="67.8252" x2="239.2822" y1="82.5625" y2="82.5625"/><text fill="#000000" font-family="sans-serif" font-size="20" lengthAdjust="spacing" textLength="158.457" x="74.8252" y="75.8457">ListXUI().show()</text></g><g class="message" data-participant-1="ListXUI" data-participant-2="ListXController"><polygon fill="#181818" points="365.6221,115.8438,375.6221,119.8438,365.6221,123.8438,369.6221,119.8438" style="stroke:#181818;stroke-width:1;"/><line style="stroke:#181818;stroke-width:1;" x1="255.2822" x2="371.6221" y1="119.8438" y2="119.8438"/><text fill="#000000" font-family="sans-serif" font-size="20" lengthAdjust="spacing" textLength="58.6816" x="262.2822" y="113.127">listX()</text></g><g class="message" data-participant-1="ListXController" data-participant-2="PersistenceContext"><polygon fill="#181818" points="565.2666,153.125,575.2666,157.125,565.2666,161.125,569.2666,157.125" style="stroke:#181818;stroke-width:1;"/><line style="stroke:#181818;stroke-width:1;" x1="387.6221" x2="571.2666" y1="157.125" y2="157.125"/><text fill="#000000" font-family="sans-serif" font-size="20" lengthAdjust="spacing" textLength="133.623" x="394.6221" y="150.4082">repositories()</text></g><g class="message" data-participant-1="PersistenceContext" data-participant-2="AppSettings"><polygon fill="#181818" points="819.8525,190.4063,829.8525,194.4063,819.8525,198.4063,823.8525,194.4063" style="stroke:#181818;stroke-width:1;"/><line style="stroke:#181818;stroke-width:1;" x1="577.2666" x2="825.8525" y1="194.4063" y2="194.4063"/><text fill="#000000" font-family="sans-serif" font-size="20" lengthAdjust="spacing" textLength="100.332" x="584.2666" y="187.6895">instance()</text></g><g class="message" data-participant-1="PersistenceContext" data-participant-2="AppSettings"><polygon fill="#181818" points="814.8525,227.6875,824.8525,231.6875,814.8525,235.6875,818.8525,231.6875" style="stroke:#181818;stroke-width:1;"/><line style="stroke:#181818;stroke-width:1;" x1="577.2666" x2="820.8525" y1="231.6875" y2="231.6875"/><text fill="#000000" font-family="sans-serif" font-size="20" lengthAdjust="spacing" textLength="230.5859" x="584.2666" y="224.9707">getRepositoryFactory()</text></g><g class="message" data-participant-1="AppSettings" data-participant-2="RepositoryFactory"><polygon fill="#181818" points="990.4736,264.9688,1000.4736,268.9688,990.4736,272.9688,994.4736,268.9688" style="stroke:#181818;stroke-width:1;"/><line style="stroke:#181818;stroke-width:1;stroke-dasharray:2.0,2.0;" x1="836.8525" x2="996.4736" y1="268.9688" y2="268.9688"/><text fill="#000000" font-family="sans-serif" font-size="20" lengthAdjust="spacing" textLength="79.5313" x="843.8525" y="262.252">create()</text></g><g class="message" data-participant-1="RepositoryFactory" data-participant-2="AppSettings"><polygon fill="#181818" points="847.8525,278.9688,837.8525,282.9688,847.8525,286.9688,843.8525,282.9688" style="stroke:#181818;stroke-width:1;"/><line style="stroke:#181818;stroke-width:1;stroke-dasharray:2.0,2.0;" x1="841.8525" x2="1001.4736" y1="282.9688" y2="282.9688"/></g><g class="message" data-participant-1="AppSettings" data-participant-2="ListXController"><polygon fill="#181818" points="398.6221,292.9688,388.6221,296.9688,398.6221,300.9688,394.6221,296.9688" style="stroke:#181818;stroke-width:1;"/><line style="stroke:#181818;stroke-width:1;stroke-dasharray:2.0,2.0;" x1="392.6221" x2="830.8525" y1="296.9688" y2="296.9688"/></g><g class="message" data-participant-1="ListXController" data-participant-2="RepositoryFactory"><polygon fill="#181818" points="990.4736,330.25,1000.4736,334.25,990.4736,338.25,994.4736,334.25" style="stroke:#181818;stroke-width:1;"/><line style="stroke:#181818;stroke-width:1;" x1="387.6221" x2="996.4736" y1="334.25" y2="334.25"/><text fill="#000000" font-family="sans-serif" font-size="20" lengthAdjust="spacing" textLength="52.6758" x="394.6221" y="327.5332">allX()</text></g><g class="message" data-participant-1="RepositoryFactory" data-participant-2="XRepository"><polygon fill="#181818" points="1166.0166,367.5313,1176.0166,371.5313,1166.0166,375.5313,1170.0166,371.5313" style="stroke:#181818;stroke-width:1;"/><line style="stroke:#181818;stroke-width:1;" x1="1012.4736" x2="1172.0166" y1="371.5313" y2="371.5313"/><text fill="#000000" font-family="sans-serif" font-size="20" lengthAdjust="spacing" textLength="79.5313" x="1019.4736" y="364.8145">create()</text></g><g class="message" data-participant-1="XRepository" data-participant-2="ListXController"><polygon fill="#181818" points="398.6221,381.5313,388.6221,385.5313,398.6221,389.5313,394.6221,385.5313" style="stroke:#181818;stroke-width:1;"/><line style="stroke:#181818;stroke-width:1;stroke-dasharray:2.0,2.0;" x1="392.6221" x2="1182.0166" y1="385.5313" y2="385.5313"/></g><g class="message" data-participant-1="ListXController" data-participant-2="ListXUI"><polygon fill="#181818" points="266.2822,418.8125,256.2822,422.8125,266.2822,426.8125,262.2822,422.8125" style="stroke:#181818;stroke-width:1;"/><line style="stroke:#181818;stroke-width:1;stroke-dasharray:2.0,2.0;" x1="260.2822" x2="381.6221" y1="422.8125" y2="422.8125"/><text fill="#000000" font-family="sans-serif" font-size="20" lengthAdjust="spacing" textLength="29.375" x="272.2822" y="416.0957">list</text></g><g class="message" data-participant-1="ListXUI" data-participant-2="ListXAction"><polygon fill="#181818" points="78.8252,432.8125,68.8252,436.8125,78.8252,440.8125,74.8252,436.8125" style="stroke:#181818;stroke-width:1;"/><line style="stroke:#181818;stroke-width:1;stroke-dasharray:2.0,2.0;" x1="72.8252" x2="249.2822" y1="436.8125" y2="436.8125"/></g><!--SRC=[dPGzQmCn38Rt-nKUa-5AwTWX40g1GeVIKCXgV6egujg7hNx- -ieG9_BPkKAz9EZZiLv9ldX0D-gWtwmt1nZK02_wtTB6EzhY3wYRwwvZFw71KJjI3nXfjpQ4tjNsv_lQTiUauAs5KFWU8KHsWpEG8k2B2lTw7BT0X6uV2_iJZ3uY-V2zqIRz5DxTsTrrebBLhtA1wZR_Moolugl_N2mxnOTf-A49JaAICUVazBCMnjXaEMRN124x1qmHJAsxmE2GHI14mK-d4SyKqInEHnT9Sy0_KlT0LOCdc4AfdD8qI99xlga2ytqc06FcRgZdFGsjkNsfwy_ABiqhdm5c1JV6sjAghPNRqYXx9VUtrPrJ6NBFirFcpgaIQbgOIatnTDBEjqYpAvyUKAOSlnoN4FpkVW40]--></g></svg>