<?xml version="1.0" encoding="us-ascii" standalone="no"?><svg xmlns="http://www.w3.org/2000/svg" xmlns:xlink="http://www.w3.org/1999/xlink" contentStyleType="text/css" height="522.6px" preserveAspectRatio="none" style="width:769px;height:522px;background:#FFFFFF;" version="1.1" viewBox="0 0 769 522" width="769.8px" zoomAndPan="magnify"><defs/><g><!--cluster customer_rec--><g id="cluster_customer_rec"><rect fill="none" height="234.9" rx="1.5" ry="1.5" style="stroke:#181818;stroke-width:0.6;" width="355.2" x="303" y="284.4"/><text fill="#000000" font-family="sans-serif" font-size="8.4" font-weight="bold" lengthAdjust="spacing" textLength="2.4" x="479.4" y="294.6645">&#160;</text></g><!--cluster showProposal_rec--><g id="cluster_showProposal_rec"><rect fill="none" height="234.9" rx="1.5" ry="1.5" style="stroke:#181818;stroke-width:0.6;" width="260.4" x="4.2" y="133.8"/><text fill="#000000" font-family="sans-serif" font-size="8.4" font-weight="bold" lengthAdjust="spacing" textLength="2.4" x="133.2" y="144.0645">&#160;</text></g><!--cluster showRequest_rec--><g id="cluster_showRequest_rec"><rect fill="none" height="224.1" rx="1.5" ry="1.5" style="stroke:#181818;stroke-width:0.6;" width="487.2" x="279" y="4.2"/><text fill="#000000" font-family="sans-serif" font-size="8.4" font-weight="bold" lengthAdjust="spacing" textLength="2.4" x="521.4" y="14.4645">&#160;</text></g><!--class customer--><g id="elem_customer"><rect codeLine="9" fill="#F1F1F1" height="45.9258" id="customer" rx="1.5" ry="1.5" style="stroke:#181818;stroke-width:0.3;" width="61.2" x="460.8" y="306.6"/><text fill="#000000" font-family="sans-serif" font-size="7.2" font-style="italic" lengthAdjust="spacing" textLength="60" x="461.4" y="317.3695">&#171;Aggregate Root&#187;</text><text fill="#000000" font-family="sans-serif" font-size="7.2" font-style="italic" lengthAdjust="spacing" textLength="26.4" x="478.2" y="326.9461">&#171;Entity&#187;</text><text fill="#000000" font-family="sans-serif" font-size="8.4" font-weight="bold" lengthAdjust="spacing" textLength="40.8" x="471" y="337.8176">Customer</text><line style="stroke:#181818;stroke-width:0.3;" x1="461.4" x2="521.4" y1="342.9258" y2="342.9258"/><line style="stroke:#181818;stroke-width:0.3;" x1="461.4" x2="521.4" y1="347.7258" y2="347.7258"/></g><!--class customerVAT--><g id="elem_customerVAT"><rect codeLine="11" fill="#F1F1F1" height="58.6945" id="customerVAT" rx="1.5" ry="1.5" style="stroke:#181818;stroke-width:0.3;" width="75" x="312.9" y="423.9"/><text fill="#000000" font-family="sans-serif" font-size="7.2" font-style="italic" lengthAdjust="spacing" textLength="27.6" x="336.6" y="434.6695">&#171;Value&#187;</text><text fill="#000000" font-family="sans-serif" font-size="8.4" font-weight="bold" lengthAdjust="spacing" textLength="48.6" x="326.1" y="445.541">VATNumber</text><line style="stroke:#181818;stroke-width:0.3;" x1="313.5" x2="387.3" y1="450.6492" y2="450.6492"/><ellipse cx="319.5" cy="459.5355" fill="none" rx="1.8" ry="1.8" style="stroke:#038048;stroke-width:0.6;"/><text fill="#000000" font-family="sans-serif" font-size="8.4" lengthAdjust="spacing" textLength="51.6" x="324.9" y="462.1137">country_code</text><ellipse cx="319.5" cy="470.7082" fill="none" rx="1.8" ry="1.8" style="stroke:#038048;stroke-width:0.6;"/><text fill="#000000" font-family="sans-serif" font-size="8.4" lengthAdjust="spacing" textLength="59.4" x="324.9" y="473.2863">unique_number</text><line style="stroke:#181818;stroke-width:0.3;" x1="313.5" x2="387.3" y1="477.7945" y2="477.7945"/></g><!--class customerAddress--><g id="elem_customerAddress"><rect codeLine="16" fill="#F1F1F1" height="112.9617" id="customerAddress" rx="1.5" ry="1.5" style="stroke:#181818;stroke-width:0.3;" width="79.8" x="408.9" y="396.9"/><text fill="#000000" font-family="sans-serif" font-size="7.2" font-style="italic" lengthAdjust="spacing" textLength="27.6" x="435" y="407.6695">&#171;Value&#187;</text><text fill="#000000" font-family="sans-serif" font-size="7.2" font-style="italic" lengthAdjust="spacing" textLength="35.4" x="431.1" y="417.2461">&#171;Address&#187;</text><text fill="#000000" font-family="sans-serif" font-size="8.4" lengthAdjust="spacing" textLength="36.6" x="430.5" y="428.1176">Customer</text><text fill="#000000" font-family="sans-serif" font-size="8.4" font-weight="bold" lengthAdjust="spacing" textLength="34.8" x="431.4" y="439.2902">Address</text><line style="stroke:#181818;stroke-width:0.3;" x1="409.5" x2="488.1" y1="444.3984" y2="444.3984"/><ellipse cx="415.5" cy="453.2848" fill="none" rx="1.8" ry="1.8" style="stroke:#038048;stroke-width:0.6;"/><text fill="#000000" font-family="sans-serif" font-size="8.4" lengthAdjust="spacing" textLength="47.4" x="420.9" y="455.8629">street_name</text><ellipse cx="415.5" cy="464.4574" fill="none" rx="1.8" ry="1.8" style="stroke:#038048;stroke-width:0.6;"/><text fill="#000000" font-family="sans-serif" font-size="8.4" lengthAdjust="spacing" textLength="64.2" x="420.9" y="467.0355">address_number</text><ellipse cx="415.5" cy="475.6301" fill="none" rx="1.8" ry="1.8" style="stroke:#038048;stroke-width:0.6;"/><text fill="#000000" font-family="sans-serif" font-size="8.4" lengthAdjust="spacing" textLength="46.2" x="420.9" y="478.2082">postal_code</text><ellipse cx="415.5" cy="486.8027" fill="none" rx="1.8" ry="1.8" style="stroke:#038048;stroke-width:0.6;"/><text fill="#000000" font-family="sans-serif" font-size="8.4" lengthAdjust="spacing" textLength="28.2" x="420.9" y="489.3809">country</text><ellipse cx="415.5" cy="497.9754" fill="none" rx="1.8" ry="1.8" style="stroke:#038048;stroke-width:0.6;"/><text fill="#000000" font-family="sans-serif" font-size="8.4" lengthAdjust="spacing" textLength="12.6" x="420.9" y="500.5535">city</text><line style="stroke:#181818;stroke-width:0.3;" x1="409.5" x2="488.1" y1="505.0617" y2="505.0617"/></g><!--class customerName--><g id="elem_customerName"><rect codeLine="24" fill="#F1F1F1" height="68.2711" id="customerName" rx="1.5" ry="1.5" style="stroke:#181818;stroke-width:0.3;" width="49.2" x="510" y="419.1"/><text fill="#000000" font-family="sans-serif" font-size="7.2" font-style="italic" lengthAdjust="spacing" textLength="27.6" x="520.8" y="429.8695">&#171;Value&#187;</text><text fill="#000000" font-family="sans-serif" font-size="7.2" font-style="italic" lengthAdjust="spacing" textLength="48" x="510.6" y="439.4461">&#171;Designation&#187;</text><text fill="#000000" font-family="sans-serif" font-size="8.4" lengthAdjust="spacing" textLength="36.6" x="516.3" y="450.3176">Customer</text><text fill="#000000" font-family="sans-serif" font-size="8.4" font-weight="bold" lengthAdjust="spacing" textLength="23.4" x="522.9" y="461.4902">Name</text><line style="stroke:#181818;stroke-width:0.3;" x1="510.6" x2="558.6" y1="466.5984" y2="466.5984"/><ellipse cx="516.6" cy="475.4848" fill="none" rx="1.8" ry="1.8" style="stroke:#038048;stroke-width:0.6;"/><text fill="#000000" font-family="sans-serif" font-size="8.4" lengthAdjust="spacing" textLength="21" x="522" y="478.0629">name</text><line style="stroke:#181818;stroke-width:0.3;" x1="510.6" x2="558.6" y1="482.5711" y2="482.5711"/></g><!--class customerStatus--><g id="elem_customerStatus"><rect codeLine="28" fill="#F1F1F1" height="103.3852" id="customerStatus" rx="1.5" ry="1.5" style="stroke:#181818;stroke-width:0.3;" width="67.8" x="580.5" y="401.7"/><text fill="#000000" font-family="sans-serif" font-size="7.2" font-style="italic" lengthAdjust="spacing" textLength="28.2" x="600.3" y="412.4695">&#171;Enum&#187;</text><text fill="#000000" font-family="sans-serif" font-size="8.4" lengthAdjust="spacing" textLength="36.6" x="596.1" y="423.341">Customer</text><text fill="#000000" font-family="sans-serif" font-size="8.4" font-weight="bold" lengthAdjust="spacing" textLength="26.4" x="601.2" y="434.5137">Status</text><line style="stroke:#181818;stroke-width:0.3;" x1="581.1" x2="647.7" y1="439.6219" y2="439.6219"/><text fill="#000000" font-family="sans-serif" font-size="8.4" lengthAdjust="spacing" textLength="60.6" x="584.1" y="451.0863">INFRINGEMENT</text><text fill="#000000" font-family="sans-serif" font-size="8.4" lengthAdjust="spacing" textLength="38.4" x="584.1" y="462.259">DELETED</text><text fill="#000000" font-family="sans-serif" font-size="8.4" lengthAdjust="spacing" textLength="39.6" x="584.1" y="473.4316">CREATED</text><text fill="#000000" font-family="sans-serif" font-size="8.4" lengthAdjust="spacing" textLength="39.6" x="584.1" y="484.6043">REGULAR</text><text fill="#000000" font-family="sans-serif" font-size="8.4" lengthAdjust="spacing" textLength="12.6" x="584.1" y="495.777">VIP</text><line style="stroke:#181818;stroke-width:0.3;" x1="581.1" x2="647.7" y1="500.2852" y2="500.2852"/></g><!--class showProposal--><g id="elem_showProposal"><rect codeLine="44" fill="#F1F1F1" height="45.9258" id="showProposal" rx="1.5" ry="1.5" style="stroke:#181818;stroke-width:0.3;" width="63.6" x="82.8" y="306.6"/><text fill="#000000" font-family="sans-serif" font-size="7.2" font-style="italic" lengthAdjust="spacing" textLength="58.2" x="85.5" y="317.3695">&#171;AggregateRoot&#187;</text><text fill="#000000" font-family="sans-serif" font-size="7.2" font-style="italic" lengthAdjust="spacing" textLength="26.4" x="101.4" y="326.9461">&#171;Entity&#187;</text><text fill="#000000" font-family="sans-serif" font-size="8.4" font-weight="bold" lengthAdjust="spacing" textLength="60" x="84.6" y="337.8176">ShowProposal</text><line style="stroke:#181818;stroke-width:0.3;" x1="83.4" x2="145.8" y1="342.9258" y2="342.9258"/><line style="stroke:#181818;stroke-width:0.3;" x1="83.4" x2="145.8" y1="347.7258" y2="347.7258"/></g><!--class showpropDate--><g id="elem_showpropDate"><rect codeLine="47" fill="#F1F1F1" height="68.2711" id="showpropDate" rx="1.5" ry="1.5" style="stroke:#181818;stroke-width:0.3;" width="40.2" x="14.1" y="161.4"/><text fill="#000000" font-family="sans-serif" font-size="7.2" font-style="italic" lengthAdjust="spacing" textLength="27.6" x="20.4" y="172.1695">&#171;Value&#187;</text><text fill="#000000" font-family="sans-serif" font-size="7.2" font-style="italic" lengthAdjust="spacing" textLength="24" x="22.2" y="181.7461">&#171;Date&#187;</text><text fill="#000000" font-family="sans-serif" font-size="8.4" lengthAdjust="spacing" textLength="36.6" x="15.9" y="192.6176">Proposed</text><text fill="#000000" font-family="sans-serif" font-size="8.4" font-weight="bold" lengthAdjust="spacing" textLength="19.2" x="24.6" y="203.7902">Date</text><line style="stroke:#181818;stroke-width:0.3;" x1="14.7" x2="53.7" y1="208.8984" y2="208.8984"/><ellipse cx="20.7" cy="217.7848" fill="none" rx="1.8" ry="1.8" style="stroke:#038048;stroke-width:0.6;"/><text fill="#000000" font-family="sans-serif" font-size="8.4" lengthAdjust="spacing" textLength="16.8" x="26.1" y="220.3629">date</text><line style="stroke:#181818;stroke-width:0.3;" x1="14.7" x2="53.7" y1="224.8711" y2="224.8711"/></g><!--class showpropTime--><g id="elem_showpropTime"><rect codeLine="51" fill="#F1F1F1" height="68.2711" id="showpropTime" rx="1.5" ry="1.5" style="stroke:#181818;stroke-width:0.3;" width="40.2" x="75.3" y="161.4"/><text fill="#000000" font-family="sans-serif" font-size="7.2" font-style="italic" lengthAdjust="spacing" textLength="27.6" x="81.6" y="172.1695">&#171;Value&#187;</text><text fill="#000000" font-family="sans-serif" font-size="7.2" font-style="italic" lengthAdjust="spacing" textLength="25.2" x="82.8" y="181.7461">&#171;Time&#187;</text><text fill="#000000" font-family="sans-serif" font-size="8.4" lengthAdjust="spacing" textLength="36.6" x="77.1" y="192.6176">Proposed</text><text fill="#000000" font-family="sans-serif" font-size="8.4" font-weight="bold" lengthAdjust="spacing" textLength="19.8" x="85.5" y="203.7902">Time</text><line style="stroke:#181818;stroke-width:0.3;" x1="75.9" x2="114.9" y1="208.8984" y2="208.8984"/><ellipse cx="81.9" cy="217.7848" fill="none" rx="1.8" ry="1.8" style="stroke:#038048;stroke-width:0.6;"/><text fill="#000000" font-family="sans-serif" font-size="8.4" lengthAdjust="spacing" textLength="15.6" x="87.3" y="220.3629">time</text><line style="stroke:#181818;stroke-width:0.3;" x1="75.9" x2="114.9" y1="224.8711" y2="224.8711"/></g><!--class showpropDuration--><g id="elem_showpropDuration"><rect codeLine="55" fill="#F1F1F1" height="68.2711" id="showpropDuration" rx="1.5" ry="1.5" style="stroke:#181818;stroke-width:0.3;" width="46.8" x="136.8" y="161.4"/><text fill="#000000" font-family="sans-serif" font-size="7.2" font-style="italic" lengthAdjust="spacing" textLength="27.6" x="146.4" y="172.1695">&#171;Value&#187;</text><text fill="#000000" font-family="sans-serif" font-size="7.2" font-style="italic" lengthAdjust="spacing" textLength="25.2" x="147.6" y="181.7461">&#171;Time&#187;</text><text fill="#000000" font-family="sans-serif" font-size="8.4" lengthAdjust="spacing" textLength="36.6" x="141.9" y="192.6176">Proposed</text><text fill="#000000" font-family="sans-serif" font-size="8.4" font-weight="bold" lengthAdjust="spacing" textLength="36" x="142.2" y="203.7902">Duration</text><line style="stroke:#181818;stroke-width:0.3;" x1="137.4" x2="183" y1="208.8984" y2="208.8984"/><ellipse cx="143.4" cy="217.7848" fill="none" rx="1.8" ry="1.8" style="stroke:#038048;stroke-width:0.6;"/><text fill="#000000" font-family="sans-serif" font-size="8.4" lengthAdjust="spacing" textLength="31.2" x="148.8" y="220.3629">duration</text><line style="stroke:#181818;stroke-width:0.3;" x1="137.4" x2="183" y1="224.8711" y2="224.8711"/></g><!--class showpropPlace--><g id="elem_showpropPlace"><rect codeLine="59" fill="#F1F1F1" height="79.4438" id="showpropPlace" rx="1.5" ry="1.5" style="stroke:#181818;stroke-width:0.3;" width="50.4" x="204.6" y="156"/><text fill="#000000" font-family="sans-serif" font-size="7.2" font-style="italic" lengthAdjust="spacing" textLength="27.6" x="216" y="166.7695">&#171;Value&#187;</text><text fill="#000000" font-family="sans-serif" font-size="7.2" font-style="italic" lengthAdjust="spacing" textLength="43.8" x="207.9" y="176.3461">&#171;Gelocation&#187;</text><text fill="#000000" font-family="sans-serif" font-size="8.4" lengthAdjust="spacing" textLength="36.6" x="211.5" y="187.2176">Proposed</text><text fill="#000000" font-family="sans-serif" font-size="8.4" font-weight="bold" lengthAdjust="spacing" textLength="22.8" x="218.4" y="198.3902">Place</text><line style="stroke:#181818;stroke-width:0.3;" x1="205.2" x2="254.4" y1="203.4984" y2="203.4984"/><ellipse cx="211.2" cy="212.3848" fill="none" rx="1.8" ry="1.8" style="stroke:#038048;stroke-width:0.6;"/><text fill="#000000" font-family="sans-serif" font-size="8.4" lengthAdjust="spacing" textLength="27.6" x="216.6" y="214.9629">latitude</text><ellipse cx="211.2" cy="223.5574" fill="none" rx="1.8" ry="1.8" style="stroke:#038048;stroke-width:0.6;"/><text fill="#000000" font-family="sans-serif" font-size="8.4" lengthAdjust="spacing" textLength="34.8" x="216.6" y="226.1355">longitude</text><line style="stroke:#181818;stroke-width:0.3;" x1="205.2" x2="254.4" y1="230.6437" y2="230.6437"/></g><!--class showpropDroneList--><g id="elem_showpropDroneList"><rect codeLine="64" fill="#F1F1F1" height="58.6945" id="showpropDroneList" rx="1.5" ry="1.5" style="stroke:#181818;stroke-width:0.3;" width="87.6" x="167.4" y="300.3"/><text fill="#000000" font-family="sans-serif" font-size="7.2" font-style="italic" lengthAdjust="spacing" textLength="27.6" x="197.4" y="311.0695">&#171;Value&#187;</text><text fill="#000000" font-family="sans-serif" font-size="8.4" lengthAdjust="spacing" textLength="36.6" x="192.9" y="321.941">Proposed</text><text fill="#000000" font-family="sans-serif" font-size="8.4" font-weight="bold" lengthAdjust="spacing" textLength="40.8" x="190.8" y="333.1137">DroneList</text><line style="stroke:#181818;stroke-width:0.3;" x1="168" x2="254.4" y1="338.2219" y2="338.2219"/><ellipse cx="174" cy="347.1082" fill="none" rx="1.8" ry="1.8" style="stroke:#038048;stroke-width:0.6;"/><text fill="#000000" font-family="sans-serif" font-size="8.4" lengthAdjust="spacing" textLength="72" x="179.4" y="349.6863">number_of_drones</text><line style="stroke:#181818;stroke-width:0.3;" x1="168" x2="254.4" y1="354.1945" y2="354.1945"/></g><!--class showRequest--><g id="elem_showRequest"><rect codeLine="79" fill="#F1F1F1" height="45.9258" id="showRequest" rx="1.5" ry="1.5" style="stroke:#181818;stroke-width:0.3;" width="61.8" x="460.5" y="172.5"/><text fill="#000000" font-family="sans-serif" font-size="7.2" font-style="italic" lengthAdjust="spacing" textLength="58.2" x="462.3" y="183.2695">&#171;AggregateRoot&#187;</text><text fill="#000000" font-family="sans-serif" font-size="7.2" font-style="italic" lengthAdjust="spacing" textLength="26.4" x="478.2" y="192.8461">&#171;Entity&#187;</text><text fill="#000000" font-family="sans-serif" font-size="8.4" font-weight="bold" lengthAdjust="spacing" textLength="58.2" x="462.3" y="203.7176">ShowRequest</text><line style="stroke:#181818;stroke-width:0.3;" x1="461.1" x2="521.7" y1="208.8258" y2="208.8258"/><line style="stroke:#181818;stroke-width:0.3;" x1="461.1" x2="521.7" y1="213.6258" y2="213.6258"/></g><!--class showreqPlace--><g id="elem_showreqPlace"><rect codeLine="81" fill="#F1F1F1" height="79.4438" id="showreqPlace" rx="1.5" ry="1.5" style="stroke:#181818;stroke-width:0.3;" width="50.4" x="397.2" y="26.4"/><text fill="#000000" font-family="sans-serif" font-size="7.2" font-style="italic" lengthAdjust="spacing" textLength="27.6" x="408.6" y="37.1695">&#171;Value&#187;</text><text fill="#000000" font-family="sans-serif" font-size="7.2" font-style="italic" lengthAdjust="spacing" textLength="43.8" x="400.5" y="46.7461">&#171;Gelocation&#187;</text><text fill="#000000" font-family="sans-serif" font-size="8.4" lengthAdjust="spacing" textLength="41.4" x="401.7" y="57.6176">Requested</text><text fill="#000000" font-family="sans-serif" font-size="8.4" font-weight="bold" lengthAdjust="spacing" textLength="22.8" x="411" y="68.7902">Place</text><line style="stroke:#181818;stroke-width:0.3;" x1="397.8" x2="447" y1="73.8984" y2="73.8984"/><ellipse cx="403.8" cy="82.7848" fill="none" rx="1.8" ry="1.8" style="stroke:#038048;stroke-width:0.6;"/><text fill="#000000" font-family="sans-serif" font-size="8.4" lengthAdjust="spacing" textLength="27.6" x="409.2" y="85.3629">latitude</text><ellipse cx="403.8" cy="93.9574" fill="none" rx="1.8" ry="1.8" style="stroke:#038048;stroke-width:0.6;"/><text fill="#000000" font-family="sans-serif" font-size="8.4" lengthAdjust="spacing" textLength="34.8" x="409.2" y="96.5355">longitude</text><line style="stroke:#181818;stroke-width:0.3;" x1="397.8" x2="447" y1="101.0438" y2="101.0438"/></g><!--class showreqDate--><g id="elem_showreqDate"><rect codeLine="86" fill="#F1F1F1" height="68.2711" id="showreqDate" rx="1.5" ry="1.5" style="stroke:#181818;stroke-width:0.3;" width="45" x="468.9" y="31.8"/><text fill="#000000" font-family="sans-serif" font-size="7.2" font-style="italic" lengthAdjust="spacing" textLength="27.6" x="477.6" y="42.5695">&#171;Value&#187;</text><text fill="#000000" font-family="sans-serif" font-size="7.2" font-style="italic" lengthAdjust="spacing" textLength="24" x="479.4" y="52.1461">&#171;Date&#187;</text><text fill="#000000" font-family="sans-serif" font-size="8.4" lengthAdjust="spacing" textLength="41.4" x="470.7" y="63.0176">Requested</text><text fill="#000000" font-family="sans-serif" font-size="8.4" font-weight="bold" lengthAdjust="spacing" textLength="19.2" x="481.8" y="74.1902">Date</text><line style="stroke:#181818;stroke-width:0.3;" x1="469.5" x2="513.3" y1="79.2984" y2="79.2984"/><ellipse cx="475.5" cy="88.1848" fill="none" rx="1.8" ry="1.8" style="stroke:#038048;stroke-width:0.6;"/><text fill="#000000" font-family="sans-serif" font-size="8.4" lengthAdjust="spacing" textLength="16.8" x="480.9" y="90.7629">date</text><line style="stroke:#181818;stroke-width:0.3;" x1="469.5" x2="513.3" y1="95.2711" y2="95.2711"/></g><!--class showreqTime--><g id="elem_showreqTime"><rect codeLine="90" fill="#F1F1F1" height="68.2711" id="showreqTime" rx="1.5" ry="1.5" style="stroke:#181818;stroke-width:0.3;" width="45" x="534.9" y="31.8"/><text fill="#000000" font-family="sans-serif" font-size="7.2" font-style="italic" lengthAdjust="spacing" textLength="27.6" x="543.6" y="42.5695">&#171;Value&#187;</text><text fill="#000000" font-family="sans-serif" font-size="7.2" font-style="italic" lengthAdjust="spacing" textLength="25.2" x="544.8" y="52.1461">&#171;Time&#187;</text><text fill="#000000" font-family="sans-serif" font-size="8.4" lengthAdjust="spacing" textLength="41.4" x="536.7" y="63.0176">Requested</text><text fill="#000000" font-family="sans-serif" font-size="8.4" font-weight="bold" lengthAdjust="spacing" textLength="19.8" x="547.5" y="74.1902">Time</text><line style="stroke:#181818;stroke-width:0.3;" x1="535.5" x2="579.3" y1="79.2984" y2="79.2984"/><ellipse cx="541.5" cy="88.1848" fill="none" rx="1.8" ry="1.8" style="stroke:#038048;stroke-width:0.6;"/><text fill="#000000" font-family="sans-serif" font-size="8.4" lengthAdjust="spacing" textLength="15.6" x="546.9" y="90.7629">time</text><line style="stroke:#181818;stroke-width:0.3;" x1="535.5" x2="579.3" y1="95.2711" y2="95.2711"/></g><!--class showreqDuration--><g id="elem_showreqDuration"><rect codeLine="94" fill="#F1F1F1" height="68.2711" id="showreqDuration" rx="1.5" ry="1.5" style="stroke:#181818;stroke-width:0.3;" width="46.8" x="601.2" y="31.8"/><text fill="#000000" font-family="sans-serif" font-size="7.2" font-style="italic" lengthAdjust="spacing" textLength="27.6" x="610.8" y="42.5695">&#171;Value&#187;</text><text fill="#000000" font-family="sans-serif" font-size="7.2" font-style="italic" lengthAdjust="spacing" textLength="25.2" x="612" y="52.1461">&#171;Time&#187;</text><text fill="#000000" font-family="sans-serif" font-size="8.4" lengthAdjust="spacing" textLength="41.4" x="603.9" y="63.0176">Requested</text><text fill="#000000" font-family="sans-serif" font-size="8.4" font-weight="bold" lengthAdjust="spacing" textLength="36" x="606.6" y="74.1902">Duration</text><line style="stroke:#181818;stroke-width:0.3;" x1="601.8" x2="647.4" y1="79.2984" y2="79.2984"/><ellipse cx="607.8" cy="88.1848" fill="none" rx="1.8" ry="1.8" style="stroke:#038048;stroke-width:0.6;"/><text fill="#000000" font-family="sans-serif" font-size="8.4" lengthAdjust="spacing" textLength="31.2" x="613.2" y="90.7629">duration</text><line style="stroke:#181818;stroke-width:0.3;" x1="601.8" x2="647.4" y1="95.2711" y2="95.2711"/></g><!--class showreqNofDrones--><g id="elem_showreqNofDrones"><rect codeLine="98" fill="#F1F1F1" height="68.2711" id="showreqNofDrones" rx="1.5" ry="1.5" style="stroke:#181818;stroke-width:0.3;" width="87.6" x="669" y="31.8"/><text fill="#000000" font-family="sans-serif" font-size="7.2" font-style="italic" lengthAdjust="spacing" textLength="27.6" x="699" y="42.5695">&#171;Value&#187;</text><text fill="#000000" font-family="sans-serif" font-size="7.2" font-style="italic" lengthAdjust="spacing" textLength="35.4" x="695.1" y="52.1461">&#171;Quantity&#187;</text><text fill="#000000" font-family="sans-serif" font-size="8.4" lengthAdjust="spacing" textLength="41.4" x="692.1" y="63.0176">Requested</text><text fill="#000000" font-family="sans-serif" font-size="8.4" font-weight="bold" lengthAdjust="spacing" textLength="73.2" x="676.2" y="74.1902">NumberOfDrones</text><line style="stroke:#181818;stroke-width:0.3;" x1="669.6" x2="756" y1="79.2984" y2="79.2984"/><ellipse cx="675.6" cy="88.1848" fill="none" rx="1.8" ry="1.8" style="stroke:#038048;stroke-width:0.6;"/><text fill="#000000" font-family="sans-serif" font-size="8.4" lengthAdjust="spacing" textLength="72" x="681" y="90.7629">number_of_drones</text><line style="stroke:#181818;stroke-width:0.3;" x1="669.6" x2="756" y1="95.2711" y2="95.2711"/></g><!--class showreqDescription--><g id="elem_showreqDescription"><rect codeLine="102" fill="#F1F1F1" height="68.2711" id="showreqDescription" rx="1.5" ry="1.5" style="stroke:#181818;stroke-width:0.3;" width="87" x="288.9" y="31.8"/><text fill="#000000" font-family="sans-serif" font-size="7.2" font-style="italic" lengthAdjust="spacing" textLength="27.6" x="318.6" y="42.5695">&#171;Value&#187;</text><text fill="#000000" font-family="sans-serif" font-size="7.2" font-style="italic" lengthAdjust="spacing" textLength="42.6" x="311.1" y="52.1461">&#171;Document&#187;</text><text fill="#000000" font-family="sans-serif" font-size="8.4" lengthAdjust="spacing" textLength="52.2" x="306.3" y="63.0176">ShowRequest</text><text fill="#000000" font-family="sans-serif" font-size="8.4" font-weight="bold" lengthAdjust="spacing" textLength="48.6" x="308.1" y="74.1902">Description</text><line style="stroke:#181818;stroke-width:0.3;" x1="289.5" x2="375.3" y1="79.2984" y2="79.2984"/><ellipse cx="295.5" cy="88.1848" fill="none" rx="1.8" ry="1.8" style="stroke:#038048;stroke-width:0.6;"/><text fill="#000000" font-family="sans-serif" font-size="8.4" lengthAdjust="spacing" textLength="71.4" x="300.9" y="90.7629">show_request_doc</text><line style="stroke:#181818;stroke-width:0.3;" x1="289.5" x2="375.3" y1="95.2711" y2="95.2711"/></g><!--class showreqShowDesigner--><g id="elem_showreqShowDesigner"><rect codeLine="106" fill="#DDDDDD" height="36.3492" id="showreqShowDesigner" rx="1.5" ry="1.5" style="stroke:#181818;stroke-width:0.3;" width="64.8" x="333.6" y="177.3"/><text fill="#000000" font-family="sans-serif" font-size="7.2" font-style="italic" lengthAdjust="spacing" textLength="24" x="354" y="188.0695">&#171;User&#187;</text><text fill="#000000" font-family="sans-serif" font-size="8.4" font-weight="bold" lengthAdjust="spacing" textLength="61.2" x="335.4" y="198.941">ShowDesigner</text><line style="stroke:#181818;stroke-width:0.3;" x1="334.2" x2="397.8" y1="204.0492" y2="204.0492"/><line style="stroke:#181818;stroke-width:0.3;" x1="334.2" x2="397.8" y1="208.8492" y2="208.8492"/></g><!--link customer to customerVAT--><g id="link_customer_customerVAT"><path codeLine="36" d="M460.692,349.584 C441.864,362.052 417.744,379.206 398.4,396.9 C389.538,405.006 383.0382,411.9365 375.4182,420.9365 " fill="none" id="customer-to-customerVAT" style="stroke:#181818;stroke-width:0.6;"/><polygon fill="#181818" points="373.092,423.684,378.413,421.1136,375.0305,421.3944,374.7497,418.0119,373.092,423.684" style="stroke:#181818;stroke-width:0.6;"/><text fill="#000000" font-family="sans-serif" font-size="7.8" lengthAdjust="spacing" textLength="4.2" x="371.7878" y="417.0387">1</text></g><!--link customer to customerAddress--><g id="link_customer_customerAddress"><path codeLine="37" d="M483.486,353.034 C479.178,365.412 474.8299,377.9122 469.4479,393.3682 " fill="none" id="customer-to-customerAddress" style="stroke:#181818;stroke-width:0.6;"/><polygon fill="#181818" points="468.264,396.768,472.3063,392.4576,469.2505,393.9349,467.7733,390.8791,468.264,396.768" style="stroke:#181818;stroke-width:0.6;"/><text fill="#000000" font-family="sans-serif" font-size="7.8" lengthAdjust="spacing" textLength="4.2" x="465.4477" y="390.0742">1</text></g><!--link customer to customerName--><g id="link_customer_customerName"><path codeLine="38" d="M499.422,353.034 C505.962,371.562 514.0935,394.6094 521.5035,415.5974 " fill="none" id="customer-to-customerName" style="stroke:#181818;stroke-width:0.6;"/><polygon fill="#181818" points="522.702,418.992,523.1673,413.101,521.7032,416.1631,518.6411,414.699,522.702,418.992" style="stroke:#181818;stroke-width:0.6;"/><text fill="#000000" font-family="sans-serif" font-size="7.8" lengthAdjust="spacing" textLength="4.2" x="516.796" y="412.4246">1</text></g><!--link customer to customerStatus--><g id="link_customer_customerStatus"><path codeLine="39" d="M520.788,352.914 C536.094,365.244 554.748,381.168 570,396.9 C573.45,400.458 574.541,401.5426 577.919,405.4366 " fill="none" id="customer-to-customerStatus" style="stroke:#181818;stroke-width:0.6;"/><polygon fill="#181818" points="580.278,408.156,578.5524,402.5043,578.3121,405.8899,574.9265,405.6496,580.278,408.156" style="stroke:#181818;stroke-width:0.6;"/><text fill="#000000" font-family="sans-serif" font-size="7.8" lengthAdjust="spacing" textLength="4.2" x="571.4371" y="399.9348">1</text></g><!--reverse link showpropDate to showProposal--><g id="link_showpropDate_showProposal"><path codeLine="69" d="M56.2477,232.646 C70.8097,256.712 88.206,285.474 100.98,306.588 " fill="none" id="showpropDate-backto-showProposal" style="stroke:#181818;stroke-width:0.6;"/><polygon fill="#181818" points="54.384,229.566,55.1262,235.4285,55.9371,232.1327,59.2329,232.9436,54.384,229.566" style="stroke:#181818;stroke-width:0.6;"/><text fill="#000000" font-family="sans-serif" font-size="7.8" lengthAdjust="spacing" textLength="4.2" x="52.501" y="243.0078">1</text></g><!--reverse link showpropTime to showProposal--><g id="link_showpropTime_showProposal"><path codeLine="70" d="M100.7861,233.4711 C104.2481,257.4651 108.3,285.486 111.336,306.504 " fill="none" id="showpropTime-backto-showProposal" style="stroke:#181818;stroke-width:0.6;"/><polygon fill="#181818" points="100.272,229.908,98.6678,235.5954,100.7004,232.8773,103.4186,234.9099,100.272,229.908" style="stroke:#181818;stroke-width:0.6;"/><text fill="#000000" font-family="sans-serif" font-size="7.8" lengthAdjust="spacing" textLength="4.2" x="96.3925" y="242.8991">1</text></g><!--reverse link showpropDuration to showProposal--><g id="link_showpropDuration_showProposal"><path codeLine="71" d="M147.4637,233.3132 C139.2317,257.3072 129.564,285.486 122.352,306.504 " fill="none" id="showpropDuration-backto-showProposal" style="stroke:#181818;stroke-width:0.6;"/><polygon fill="#181818" points="148.632,229.908,144.6095,234.2369,147.6584,232.7456,149.1497,235.7946,148.632,229.908" style="stroke:#181818;stroke-width:0.6;"/><text fill="#000000" font-family="sans-serif" font-size="7.8" lengthAdjust="spacing" textLength="4.2" x="142.8516" y="242.8991">1</text></g><!--reverse link showpropPlace to showProposal--><g id="link_showpropPlace_showProposal"><path codeLine="72" d="M202.063,227.5501 C187.915,243.5941 172.398,261.294 156.6,279.6 C149.088,288.306 140.898,297.93 133.758,306.36 " fill="none" id="showpropPlace-backto-showProposal" style="stroke:#181818;stroke-width:0.6;"/><polygon fill="#181818" points="204.444,224.85,199.0724,227.3128,202.4598,227.1001,202.6725,230.4875,204.444,224.85" style="stroke:#181818;stroke-width:0.6;"/><text fill="#000000" font-family="sans-serif" font-size="7.8" lengthAdjust="spacing" textLength="4.2" x="195.525" y="227.2118">1</text></g><!--link showProposal to showpropDroneList--><g id="link_showProposal_showpropDroneList"><path codeLine="73" d="M146.484,329.7 C153.396,329.7 156.702,329.7 163.614,329.7 " fill="none" id="showProposal-to-showpropDroneList" style="stroke:#181818;stroke-width:0.6;"/><polygon fill="#181818" points="167.214,329.7,161.814,327.3,164.214,329.7,161.814,332.1,167.214,329.7" style="stroke:#181818;stroke-width:0.6;"/><text fill="#000000" font-family="sans-serif" font-size="7.8" lengthAdjust="spacing" textLength="4.2" x="158.2614" y="327.4055">1</text></g><!--reverse link showreqDescription to showRequest--><g id="link_showreqDescription_showRequest"><path codeLine="108" d="M376.9788,102.5998 C405.1308,125.3338 438.702,152.442 463.416,172.398 " fill="none" id="showreqDescription-backto-showRequest" style="stroke:#181818;stroke-width:0.6;"/><polygon fill="#181818" points="374.178,100.338,376.8713,105.5978,376.512,102.2228,379.887,101.8635,374.178,100.338" style="stroke:#181818;stroke-width:0.6;"/><text fill="#000000" font-family="sans-serif" font-size="7.8" lengthAdjust="spacing" textLength="4.2" x="374.5658" y="113.3326">1</text></g><!--reverse link showreqPlace to showRequest--><g id="link_showreqPlace_showRequest"><path codeLine="109" d="M445.0861,108.8191 C456.8221,130.6591 469.332,153.936 479.238,172.368 " fill="none" id="showreqPlace-backto-showRequest" style="stroke:#181818;stroke-width:0.6;"/><polygon fill="#181818" points="443.382,105.648,443.824,111.5408,444.802,108.2906,448.0522,109.2687,443.382,105.648" style="stroke:#181818;stroke-width:0.6;"/><text fill="#000000" font-family="sans-serif" font-size="7.8" lengthAdjust="spacing" textLength="4.2" x="441.2472" y="118.9555">1</text></g><!--reverse link showreqDate to showRequest--><g id="link_showreqDate_showRequest"><path codeLine="110" d="M491.4,103.938 C491.4,126.672 491.4,152.442 491.4,172.398 " fill="none" id="showreqDate-backto-showRequest" style="stroke:#181818;stroke-width:0.6;"/><polygon fill="#181818" points="491.4,100.338,489,105.738,491.4,103.338,493.8,105.738,491.4,100.338" style="stroke:#181818;stroke-width:0.6;"/><text fill="#000000" font-family="sans-serif" font-size="7.8" lengthAdjust="spacing" textLength="4.2" x="486.9572" y="113.3326">1</text></g><!--reverse link showreqTime to showRequest--><g id="link_showreqTime_showRequest"><path codeLine="111" d="M538.414,103.5397 C526.726,126.2737 513.276,152.442 503.016,172.398 " fill="none" id="showreqTime-backto-showRequest" style="stroke:#181818;stroke-width:0.6;"/><polygon fill="#181818" points="540.06,100.338,535.4565,104.0431,538.6883,103.006,539.7254,106.2378,540.06,100.338" style="stroke:#181818;stroke-width:0.6;"/><text fill="#000000" font-family="sans-serif" font-size="7.8" lengthAdjust="spacing" textLength="4.2" x="533.6123" y="113.3326">1</text></g><!--reverse link showreqDuration to showRequest--><g id="link_showreqDuration_showRequest"><path codeLine="112" d="M598.6619,96.9144 C595.1579,100.7964 593.94,102.006 590.4,105.6 C566.91,129.432 538.398,154.848 518.016,172.458 " fill="none" id="showreqDuration-backto-showRequest" style="stroke:#181818;stroke-width:0.6;"/><polygon fill="#181818" points="601.074,94.242,595.6742,96.6424,599.0639,96.469,599.2374,99.8586,601.074,94.242" style="stroke:#181818;stroke-width:0.6;"/><text fill="#000000" font-family="sans-serif" font-size="7.8" lengthAdjust="spacing" textLength="4.2" x="592.1492" y="96.7538">1</text></g><!--reverse link showreqNofDrones to showRequest--><g id="link_showreqNofDrones_showRequest"><path codeLine="113" d="M665.9408,101.0331 C662.5508,103.3131 662.136,103.518 658.8,105.6 C612.684,134.382 556.47,163.2 522.336,180.054 " fill="none" id="showreqNofDrones-backto-showRequest" style="stroke:#181818;stroke-width:0.6;"/><polygon fill="#181818" points="668.928,99.024,663.1078,100.0462,666.4386,100.6983,665.7866,104.0291,668.928,99.024" style="stroke:#181818;stroke-width:0.6;"/><text fill="#000000" font-family="sans-serif" font-size="7.8" lengthAdjust="spacing" textLength="4.2" x="659.9871" y="100.1363">1</text></g><!--reverse link showreqShowDesigner to showRequest--><g id="link_showreqShowDesigner_showRequest"><path codeLine="114" d="M402.054,195.6 C421.14,195.6 441.546,195.6 460.374,195.6 " fill="none" id="showreqShowDesigner-backto-showRequest" style="stroke:#181818;stroke-width:0.6;"/><polygon fill="#181818" points="398.454,195.6,403.854,198,401.454,195.6,403.854,193.2,398.454,195.6" style="stroke:#181818;stroke-width:0.6;"/><text fill="#000000" font-family="sans-serif" font-size="7.8" lengthAdjust="spacing" textLength="40.2" x="409.35" y="191.417">assigned to</text><text fill="#000000" font-family="sans-serif" font-size="7.8" lengthAdjust="spacing" textLength="12" x="403.1406" y="204.6645">0..*</text><text fill="#000000" font-family="sans-serif" font-size="7.8" lengthAdjust="spacing" textLength="3" x="452.8" y="193.1314">*</text></g><!--reverse link showRequest to showProposal--><g id="link_showRequest_showProposal"><path codeLine="118" d="M457.186,214.9795 C442.126,222.6715 426.732,229.614 409.2,235.2 C402.414,237.366 162.78,276.054 156.6,279.6 C145.356,286.044 135.738,296.688 128.556,306.462 " fill="none" id="showRequest-backto-showProposal" style="stroke:#181818;stroke-width:0.6;"/><polygon fill="#181818" points="460.392,213.342,454.4913,213.6609,457.7203,214.7066,456.6746,217.9356,460.392,213.342" style="stroke:#181818;stroke-width:0.6;"/><text fill="#000000" font-family="sans-serif" font-size="7.8" lengthAdjust="spacing" textLength="60" x="297.6" y="262.217">obtained after the</text><text fill="#000000" font-family="sans-serif" font-size="7.8" lengthAdjust="spacing" textLength="48.6" x="303.3" y="272.5916">acceptance of</text><text fill="#000000" font-family="sans-serif" font-size="7.8" lengthAdjust="spacing" textLength="4.2" x="451.5362" y="213.3683">1</text><text fill="#000000" font-family="sans-serif" font-size="7.8" lengthAdjust="spacing" textLength="4.2" x="126.3938" y="299.847">1</text></g><!--link showRequest to customer--><g id="link_showRequest_customer"><path codeLine="119" d="M491.4,218.742 C491.4,243.186 491.4,278.364 491.4,302.844 " fill="none" id="showRequest-to-customer" style="stroke:#181818;stroke-width:0.6;"/><polygon fill="#181818" points="491.4,306.444,493.8,301.044,491.4,303.444,489,301.044,491.4,306.444" style="stroke:#181818;stroke-width:0.6;"/><text fill="#000000" font-family="sans-serif" font-size="7.8" lengthAdjust="spacing" textLength="53.4" x="492" y="267.317">is requested by</text><text fill="#000000" font-family="sans-serif" font-size="7.8" lengthAdjust="spacing" textLength="3" x="488.1609" y="231.6958">*</text><text fill="#000000" font-family="sans-serif" font-size="7.8" lengthAdjust="spacing" textLength="4.2" x="486.8391" y="299.8259">1</text></g><!--SRC=[jLRHQjim57sUlq9aRnufssifWQpnIg7pkYpjKo6eikA8sb8goPHIzk-xicH7KfouK9O-r3cwEkTAzvuRRrb14M6IL5Gbwedn7PQuHbm0_9OWz5t8WifBKGc9NhPCKsH0J9vAAHfUU0l9toIHb6ZCougY2VnXXKYZjAYfNCEAeKE8SitqAvgawQLRIzCW55rSpCjIqXA3s588FPi1bBNRuF4DP4AU-_agR-h70oB0OUCzhXewcrbny_c226IkvUkQm24zkE7ikQ5htdArU2JL9Vp0qtHU598g5KawT2yBPx5Gc87IabAzvhZs4y0srC_0Bko4qhYAytN7y158Sopn73IZh0sqJncU5bInacFD10_pxXC-8V17Ozt45sF1jevDxNDUvp-Mr_bLzZFBLpsuo6woLRRelrykixd_VPbTtTtCb_tt- -jRFwk-awRJ6Pfyc_WTSJh05UjqKDvTmj48Uzf1GwYjUBcL0YeA1UrD4NNq7o_8NQI_ptV8WK6CFm8wkuiMfZOBsE4Hxc39G67n0GYhNW0oL7MVUSNgcDb00RC1GcRDwb7cHIFRJeppTl28Gk72nbHkAqpY0xHOm7z5Aq46V541ffl0dPNWvHuxTJufEBrXIiS7xF3X8MQ7n5fireK9L9rC-p_ebcdZsjCl-Jl2LbrnHjZy6puTsbxeG9oCARkZMtCSyz6ImhnMsjee-HJwnorwb-gGKVVuXN9xXdj4qkV_roA1SkHR4Fw0RGFcoBV0_07RXZaV-jRa_N7R1Yhsb__NfcqP5Mhbmi61sEy6TyL-XvryOQ-jsWDIHIJR3Pnnln2MI92c1hBeNG0sGGlRLYu46LAsBMr_bllt7AVchu38dQ8Ir3uNxQVhPx__0rk6wOx6XWu-okWFc6D1mNWvoXGFbsE1VQqF8YTmMzFAH7yzEqidWzTs3lVPFXP8YyGCd6106Pr0iEC-H-9HOsRsuOq68hsb3nmJGdSmhc0oY4roa4lqiW0aJ27PDJLwV4t-0G00]--></g></svg>