<?xml version="1.0" encoding="UTF-8" standalone="no"?><svg xmlns="http://www.w3.org/2000/svg" xmlns:xlink="http://www.w3.org/1999/xlink" contentStyleType="text/css" height="856px" preserveAspectRatio="none" style="width:963px;height:856px;background:#FFFFFF;" version="1.1" viewBox="0 0 963 856" width="963px" zoomAndPan="magnify"><defs/><g><text fill="#000000" font-family="sans-serif" font-size="14" font-weight="bold" lengthAdjust="spacing" textLength="166" x="391.5" y="22.9951">US311 Domain Model</text><!--cluster figure_node--><g id="cluster_figure_node"><polygon fill="#FFFFFF" points="756,501.2969,766,491.2969,946,491.2969,946,674.2969,936,684.2969,756,684.2969,756,501.2969" style="stroke:#FFFFFF;stroke-width:1.0;"/><line style="stroke:#FFFFFF;stroke-width:1.0;" x1="936" x2="946" y1="501.2969" y2="491.2969"/><line style="stroke:#FFFFFF;stroke-width:1.0;" x1="756" x2="936" y1="501.2969" y2="501.2969"/><line style="stroke:#FFFFFF;stroke-width:1.0;" x1="936" x2="936" y1="501.2969" y2="684.2969"/><text fill="#000000" font-family="sans-serif" font-size="14" font-weight="bold" lengthAdjust="spacing" textLength="5" x="844.5" y="517.292"> </text></g><!--cluster figure_rec--><g id="cluster_figure_rec"><rect fill="none" height="121" rx="2.5" ry="2.5" style="stroke:#181818;stroke-width:1.0;" width="142" x="780" y="539.2969"/><text fill="#000000" font-family="sans-serif" font-size="14" font-weight="bold" lengthAdjust="spacing" textLength="5" x="848.5" y="554.292"> </text></g><!--cluster droneModel_rec--><g id="cluster_droneModel_rec"><rect fill="none" height="311" rx="2.5" ry="2.5" style="stroke:#181818;stroke-width:1.0;" width="262" x="467" y="539.2969"/><text fill="#000000" font-family="sans-serif" font-size="14" font-weight="bold" lengthAdjust="spacing" textLength="5" x="595.5" y="554.292"> </text></g><!--cluster showProposal_rec--><g id="cluster_showProposal_rec"><rect fill="none" height="320" rx="2.5" ry="2.5" style="stroke:#181818;stroke-width:1.0;" width="948" x="7" y="44.2969"/><text fill="#000000" font-family="sans-serif" font-size="14" font-weight="bold" lengthAdjust="spacing" textLength="5" x="478.5" y="59.292"> </text></g><!--class figure--><g id="elem_figure"><rect codeLine="11" fill="#F1F1F1" height="70.2344" id="figure" rx="2.5" ry="2.5" style="stroke:#181818;stroke-width:0.5;" width="111" x="795.5" y="574.2969"/><text fill="#000000" font-family="sans-serif" font-size="12" font-style="italic" lengthAdjust="spacing" textLength="109" x="796.5" y="590.4355">«AggregateRoot»</text><text fill="#000000" font-family="sans-serif" font-size="12" font-style="italic" lengthAdjust="spacing" textLength="50" x="826" y="604.4043">«Entity»</text><text fill="#000000" font-family="sans-serif" font-size="14" font-weight="bold" lengthAdjust="spacing" textLength="50" x="826" y="620.2295">Figure</text><line style="stroke:#181818;stroke-width:0.5;" x1="796.5" x2="905.5" y1="628.5313" y2="628.5313"/><line style="stroke:#181818;stroke-width:0.5;" x1="796.5" x2="905.5" y1="636.5313" y2="636.5313"/></g><!--class droneModel--><g id="elem_droneModel"><rect codeLine="19" fill="#F1F1F1" height="70.2344" id="droneModel" rx="2.5" ry="2.5" style="stroke:#181818;stroke-width:0.5;" width="111" x="587.5" y="574.2969"/><text fill="#000000" font-family="sans-serif" font-size="12" font-style="italic" lengthAdjust="spacing" textLength="109" x="588.5" y="590.4355">«AggregateRoot»</text><text fill="#000000" font-family="sans-serif" font-size="12" font-style="italic" lengthAdjust="spacing" textLength="50" x="618" y="604.4043">«Entity»</text><text fill="#000000" font-family="sans-serif" font-size="14" font-weight="bold" lengthAdjust="spacing" textLength="95" x="595.5" y="620.2295">DroneModel</text><line style="stroke:#181818;stroke-width:0.5;" x1="588.5" x2="697.5" y1="628.5313" y2="628.5313"/><line style="stroke:#181818;stroke-width:0.5;" x1="588.5" x2="697.5" y1="636.5313" y2="636.5313"/></g><!--class droneName--><g id="elem_droneName"><rect codeLine="21" fill="#F1F1F1" height="102.8281" id="droneName" rx="2.5" ry="2.5" style="stroke:#181818;stroke-width:0.5;" width="91" x="483.5" y="731.2969"/><text fill="#000000" font-family="sans-serif" font-size="12" font-style="italic" lengthAdjust="spacing" textLength="49" x="504.5" y="747.4355">«Value»</text><text fill="#000000" font-family="sans-serif" font-size="12" font-style="italic" lengthAdjust="spacing" textLength="88" x="485" y="761.4043">«Designation»</text><text fill="#000000" font-family="sans-serif" font-size="14" lengthAdjust="spacing" textLength="85" x="486.5" y="777.2295">DroneModel</text><text fill="#000000" font-family="sans-serif" font-size="14" font-weight="bold" lengthAdjust="spacing" textLength="44" x="507" y="793.5264">Name</text><line style="stroke:#181818;stroke-width:0.5;" x1="484.5" x2="573.5" y1="801.8281" y2="801.8281"/><ellipse cx="494.5" cy="815.4766" fill="none" rx="3" ry="3" style="stroke:#038048;stroke-width:1.0;"/><text fill="#000000" font-family="sans-serif" font-size="14" lengthAdjust="spacing" textLength="39" x="503.5" y="818.8232">name</text><line style="stroke:#181818;stroke-width:0.5;" x1="484.5" x2="573.5" y1="826.125" y2="826.125"/></g><!--class droneDSL--><g id="elem_droneDSL"><rect codeLine="25" fill="#F1F1F1" height="102.8281" id="droneDSL" rx="2.5" ry="2.5" style="stroke:#181818;stroke-width:0.5;" width="103" x="609.5" y="731.2969"/><text fill="#000000" font-family="sans-serif" font-size="12" font-style="italic" lengthAdjust="spacing" textLength="49" x="636.5" y="747.4355">«Value»</text><text fill="#000000" font-family="sans-serif" font-size="12" font-style="italic" lengthAdjust="spacing" textLength="38" x="642" y="761.4043">«DSL»</text><text fill="#000000" font-family="sans-serif" font-size="14" font-weight="bold" lengthAdjust="spacing" textLength="78" x="622" y="777.2295">DroneDSL</text><line style="stroke:#181818;stroke-width:0.5;" x1="610.5" x2="711.5" y1="785.5313" y2="785.5313"/><ellipse cx="620.5" cy="799.1797" fill="none" rx="3" ry="3" style="stroke:#038048;stroke-width:1.0;"/><text fill="#000000" font-family="sans-serif" font-size="14" lengthAdjust="spacing" textLength="77" x="629.5" y="802.5264">dsl_version</text><ellipse cx="620.5" cy="815.4766" fill="none" rx="3" ry="3" style="stroke:#038048;stroke-width:1.0;"/><text fill="#000000" font-family="sans-serif" font-size="14" lengthAdjust="spacing" textLength="71" x="629.5" y="818.8232">dsl_syntax</text><line style="stroke:#181818;stroke-width:0.5;" x1="610.5" x2="711.5" y1="826.125" y2="826.125"/></g><!--class showProposal--><g id="elem_showProposal"><rect codeLine="36" fill="#F1F1F1" height="70.2344" id="showProposal" rx="2.5" ry="2.5" style="stroke:#181818;stroke-width:0.5;" width="119" x="391.5" y="268.7969"/><text fill="#000000" font-family="sans-serif" font-size="12" font-style="italic" lengthAdjust="spacing" textLength="109" x="396.5" y="284.9355">«AggregateRoot»</text><text fill="#000000" font-family="sans-serif" font-size="12" font-style="italic" lengthAdjust="spacing" textLength="50" x="426" y="298.9043">«Entity»</text><text fill="#000000" font-family="sans-serif" font-size="14" font-weight="bold" lengthAdjust="spacing" textLength="113" x="394.5" y="314.7295">ShowProposal</text><line style="stroke:#181818;stroke-width:0.5;" x1="392.5" x2="509.5" y1="323.0313" y2="323.0313"/><line style="stroke:#181818;stroke-width:0.5;" x1="392.5" x2="509.5" y1="331.0313" y2="331.0313"/></g><!--class showpropDate--><g id="elem_showpropDate"><rect codeLine="39" fill="#F1F1F1" height="102.8281" id="showpropDate" rx="2.5" ry="2.5" style="stroke:#181818;stroke-width:0.5;" width="73" x="23.5" y="87.2969"/><text fill="#000000" font-family="sans-serif" font-size="12" font-style="italic" lengthAdjust="spacing" textLength="49" x="35.5" y="103.4355">«Value»</text><text fill="#000000" font-family="sans-serif" font-size="12" font-style="italic" lengthAdjust="spacing" textLength="44" x="38" y="117.4043">«Date»</text><text fill="#000000" font-family="sans-serif" font-size="14" lengthAdjust="spacing" textLength="67" x="26.5" y="133.2295">Proposed</text><text fill="#000000" font-family="sans-serif" font-size="14" font-weight="bold" lengthAdjust="spacing" textLength="36" x="42" y="149.5264">Date</text><line style="stroke:#181818;stroke-width:0.5;" x1="24.5" x2="95.5" y1="157.8281" y2="157.8281"/><ellipse cx="34.5" cy="171.4766" fill="none" rx="3" ry="3" style="stroke:#038048;stroke-width:1.0;"/><text fill="#000000" font-family="sans-serif" font-size="14" lengthAdjust="spacing" textLength="31" x="43.5" y="174.8232">date</text><line style="stroke:#181818;stroke-width:0.5;" x1="24.5" x2="95.5" y1="182.125" y2="182.125"/></g><!--class showpropTime--><g id="elem_showpropTime"><rect codeLine="43" fill="#F1F1F1" height="102.8281" id="showpropTime" rx="2.5" ry="2.5" style="stroke:#181818;stroke-width:0.5;" width="73" x="131.5" y="87.2969"/><text fill="#000000" font-family="sans-serif" font-size="12" font-style="italic" lengthAdjust="spacing" textLength="49" x="143.5" y="103.4355">«Value»</text><text fill="#000000" font-family="sans-serif" font-size="12" font-style="italic" lengthAdjust="spacing" textLength="43" x="146.5" y="117.4043">«Time»</text><text fill="#000000" font-family="sans-serif" font-size="14" lengthAdjust="spacing" textLength="67" x="134.5" y="133.2295">Proposed</text><text fill="#000000" font-family="sans-serif" font-size="14" font-weight="bold" lengthAdjust="spacing" textLength="38" x="149" y="149.5264">Time</text><line style="stroke:#181818;stroke-width:0.5;" x1="132.5" x2="203.5" y1="157.8281" y2="157.8281"/><ellipse cx="142.5" cy="171.4766" fill="none" rx="3" ry="3" style="stroke:#038048;stroke-width:1.0;"/><text fill="#000000" font-family="sans-serif" font-size="14" lengthAdjust="spacing" textLength="30" x="151.5" y="174.8232">time</text><line style="stroke:#181818;stroke-width:0.5;" x1="132.5" x2="203.5" y1="182.125" y2="182.125"/></g><!--class showpropDuration--><g id="elem_showpropDuration"><rect codeLine="47" fill="#F1F1F1" height="102.8281" id="showpropDuration" rx="2.5" ry="2.5" style="stroke:#181818;stroke-width:0.5;" width="83" x="239.5" y="87.2969"/><text fill="#000000" font-family="sans-serif" font-size="12" font-style="italic" lengthAdjust="spacing" textLength="49" x="256.5" y="103.4355">«Value»</text><text fill="#000000" font-family="sans-serif" font-size="12" font-style="italic" lengthAdjust="spacing" textLength="43" x="259.5" y="117.4043">«Time»</text><text fill="#000000" font-family="sans-serif" font-size="14" lengthAdjust="spacing" textLength="67" x="247.5" y="133.2295">Proposed</text><text fill="#000000" font-family="sans-serif" font-size="14" font-weight="bold" lengthAdjust="spacing" textLength="67" x="247.5" y="149.5264">Duration</text><line style="stroke:#181818;stroke-width:0.5;" x1="240.5" x2="321.5" y1="157.8281" y2="157.8281"/><ellipse cx="250.5" cy="171.4766" fill="none" rx="3" ry="3" style="stroke:#038048;stroke-width:1.0;"/><text fill="#000000" font-family="sans-serif" font-size="14" lengthAdjust="spacing" textLength="57" x="259.5" y="174.8232">duration</text><line style="stroke:#181818;stroke-width:0.5;" x1="240.5" x2="321.5" y1="182.125" y2="182.125"/></g><!--class showpropPlace--><g id="elem_showpropPlace"><rect codeLine="51" fill="#F1F1F1" height="119.125" id="showpropPlace" rx="2.5" ry="2.5" style="stroke:#181818;stroke-width:0.5;" width="91" x="357.5" y="79.2969"/><text fill="#000000" font-family="sans-serif" font-size="12" font-style="italic" lengthAdjust="spacing" textLength="49" x="378.5" y="95.4355">«Value»</text><text fill="#000000" font-family="sans-serif" font-size="12" font-style="italic" lengthAdjust="spacing" textLength="81" x="362.5" y="109.4043">«Gelocation»</text><text fill="#000000" font-family="sans-serif" font-size="14" lengthAdjust="spacing" textLength="67" x="369.5" y="125.2295">Proposed</text><text fill="#000000" font-family="sans-serif" font-size="14" font-weight="bold" lengthAdjust="spacing" textLength="42" x="382" y="141.5264">Place</text><line style="stroke:#181818;stroke-width:0.5;" x1="358.5" x2="447.5" y1="149.8281" y2="149.8281"/><ellipse cx="368.5" cy="163.4766" fill="none" rx="3" ry="3" style="stroke:#038048;stroke-width:1.0;"/><text fill="#000000" font-family="sans-serif" font-size="14" lengthAdjust="spacing" textLength="51" x="377.5" y="166.8232">latitude</text><ellipse cx="368.5" cy="179.7734" fill="none" rx="3" ry="3" style="stroke:#038048;stroke-width:1.0;"/><text fill="#000000" font-family="sans-serif" font-size="14" lengthAdjust="spacing" textLength="65" x="377.5" y="183.1201">longitude</text><line style="stroke:#181818;stroke-width:0.5;" x1="358.5" x2="447.5" y1="190.4219" y2="190.4219"/></g><!--class showpropFigure--><g id="elem_showpropFigure"><rect codeLine="56" fill="#F1F1F1" height="88.8594" id="showpropFigure" rx="2.5" ry="2.5" style="stroke:#181818;stroke-width:0.5;" width="118" x="821" y="94.2969"/><text fill="#000000" font-family="sans-serif" font-size="12" font-style="italic" lengthAdjust="spacing" textLength="50" x="855" y="110.4355">«Entity»</text><text fill="#000000" font-family="sans-serif" font-size="14" lengthAdjust="spacing" textLength="98" x="831" y="126.2607">ShowProposal</text><text fill="#000000" font-family="sans-serif" font-size="14" font-weight="bold" lengthAdjust="spacing" textLength="50" x="855" y="142.5576">Figure</text><line style="stroke:#181818;stroke-width:0.5;" x1="822" x2="938" y1="150.8594" y2="150.8594"/><ellipse cx="832" cy="164.5078" fill="none" rx="3" ry="3" style="stroke:#038048;stroke-width:1.0;"/><text fill="#000000" font-family="sans-serif" font-size="14" lengthAdjust="spacing" textLength="92" x="841" y="167.8545">orderNumber</text><line style="stroke:#181818;stroke-width:0.5;" x1="822" x2="938" y1="175.1563" y2="175.1563"/></g><!--class showpropDroneList--><g id="elem_showpropDroneList"><rect codeLine="60" fill="#F1F1F1" height="88.8594" id="showpropDroneList" rx="2.5" ry="2.5" style="stroke:#181818;stroke-width:0.5;" width="149" x="568.5" y="259.2969"/><text fill="#000000" font-family="sans-serif" font-size="12" font-style="italic" lengthAdjust="spacing" textLength="50" x="618" y="275.4355">«Entity»</text><text fill="#000000" font-family="sans-serif" font-size="14" lengthAdjust="spacing" textLength="98" x="594" y="291.2607">ShowProposal</text><text fill="#000000" font-family="sans-serif" font-size="14" font-weight="bold" lengthAdjust="spacing" textLength="143" x="571.5" y="307.5576">DroneModelTypes</text><line style="stroke:#181818;stroke-width:0.5;" x1="569.5" x2="716.5" y1="315.8594" y2="315.8594"/><ellipse cx="579.5" cy="329.5078" fill="none" rx="3" ry="3" style="stroke:#038048;stroke-width:1.0;"/><text fill="#000000" font-family="sans-serif" font-size="14" lengthAdjust="spacing" textLength="83" x="588.5" y="332.8545">droneTypes</text><line style="stroke:#181818;stroke-width:0.5;" x1="569.5" x2="716.5" y1="340.1563" y2="340.1563"/></g><!--class showpropDescription--><g id="elem_showpropDescription"><rect codeLine="64" fill="#F1F1F1" height="102.8281" id="showpropDescription" rx="2.5" ry="2.5" style="stroke:#181818;stroke-width:0.5;" width="163" x="483.5" y="87.2969"/><text fill="#000000" font-family="sans-serif" font-size="12" font-style="italic" lengthAdjust="spacing" textLength="49" x="540.5" y="103.4355">«Value»</text><text fill="#000000" font-family="sans-serif" font-size="12" font-style="italic" lengthAdjust="spacing" textLength="78" x="526" y="117.4043">«Document»</text><text fill="#000000" font-family="sans-serif" font-size="14" lengthAdjust="spacing" textLength="98" x="516" y="133.2295">ShowProposal</text><text fill="#000000" font-family="sans-serif" font-size="14" font-weight="bold" lengthAdjust="spacing" textLength="90" x="520" y="149.5264">Description</text><line style="stroke:#181818;stroke-width:0.5;" x1="484.5" x2="645.5" y1="157.8281" y2="157.8281"/><ellipse cx="494.5" cy="171.4766" fill="none" rx="3" ry="3" style="stroke:#038048;stroke-width:1.0;"/><text fill="#000000" font-family="sans-serif" font-size="14" lengthAdjust="spacing" textLength="137" x="503.5" y="174.8232">show_proposal_doc</text><line style="stroke:#181818;stroke-width:0.5;" x1="484.5" x2="645.5" y1="182.125" y2="182.125"/></g><!--class showpropVideo--><g id="elem_showpropVideo"><rect codeLine="68" fill="#F1F1F1" height="102.8281" id="showpropVideo" rx="2.5" ry="2.5" style="stroke:#181818;stroke-width:0.5;" width="104" x="682" y="87.2969"/><text fill="#000000" font-family="sans-serif" font-size="12" font-style="italic" lengthAdjust="spacing" textLength="49" x="709.5" y="103.4355">«Value»</text><text fill="#000000" font-family="sans-serif" font-size="12" font-style="italic" lengthAdjust="spacing" textLength="49" x="709.5" y="117.4043">«Video»</text><text fill="#000000" font-family="sans-serif" font-size="14" lengthAdjust="spacing" textLength="98" x="685" y="133.2295">ShowProposal</text><text fill="#000000" font-family="sans-serif" font-size="14" font-weight="bold" lengthAdjust="spacing" textLength="45" x="711.5" y="149.5264">Video</text><line style="stroke:#181818;stroke-width:0.5;" x1="683" x2="785" y1="157.8281" y2="157.8281"/><ellipse cx="693" cy="171.4766" fill="none" rx="3" ry="3" style="stroke:#038048;stroke-width:1.0;"/><text fill="#000000" font-family="sans-serif" font-size="14" lengthAdjust="spacing" textLength="61" x="702" y="174.8232">video_url</text><line style="stroke:#181818;stroke-width:0.5;" x1="683" x2="785" y1="182.125" y2="182.125"/></g><!--link droneModel to droneName--><g id="link_droneModel_droneName"><path codeLine="30" d="M620.2,644.5869 C604.6,668.0669 583.57,699.7069 565.63,726.6869 " fill="none" id="droneModel-to-droneName" style="stroke:#181818;stroke-width:1.0;"/><polygon fill="#181818" points="562.78,730.9769,571.0922,725.6941,565.5469,726.8122,564.4287,721.267,562.78,730.9769" style="stroke:#181818;stroke-width:1.0;"/><text fill="#000000" font-family="sans-serif" font-size="13" lengthAdjust="spacing" textLength="8" x="558.7817" y="720.0931">1</text></g><!--link droneModel to droneDSL--><g id="link_droneModel_droneDSL"><path codeLine="31" d="M646.6,644.5869 C649.03,667.7769 652.3,698.9269 655.11,725.6869 " fill="none" id="droneModel-to-droneDSL" style="stroke:#181818;stroke-width:1.0;"/><polygon fill="#181818" points="655.67,730.9769,658.696,721.6044,655.1414,726.0049,650.7409,722.4502,655.67,730.9769" style="stroke:#181818;stroke-width:1.0;"/><text fill="#000000" font-family="sans-serif" font-size="13" lengthAdjust="spacing" textLength="8" x="646.4163" y="720.0931">1</text></g><!--reverse link showpropDate to showProposal--><g id="link_showpropDate_showProposal"><path codeLine="72" d="M100.53,188.2069 C104.83,191.9169 109.35,195.3569 114,198.2969 C201.67,253.6369 320.72,281.4769 391.34,293.9969 " fill="none" id="showpropDate-backto-showProposal" style="stroke:#181818;stroke-width:1.0;"/><polygon fill="#181818" points="96.64,184.7269,100.6709,193.7131,100.3628,188.0646,106.0113,187.7565,96.64,184.7269" style="stroke:#181818;stroke-width:1.0;"/><text fill="#000000" font-family="sans-serif" font-size="13" lengthAdjust="spacing" textLength="8" x="104.387" y="189.1485">1</text></g><!--reverse link showpropTime to showProposal--><g id="link_showpropTime_showProposal"><path codeLine="73" d="M208.2,186.8969 C212.64,190.9969 217.28,194.8769 222,198.2969 C274.38,236.2269 342.74,265.2269 391.09,282.9469 " fill="none" id="showpropTime-backto-showProposal" style="stroke:#181818;stroke-width:1.0;"/><polygon fill="#181818" points="204.51,183.4069,208.2856,192.5033,208.1371,186.8484,213.792,186.6999,204.51,183.4069" style="stroke:#181818;stroke-width:1.0;"/><text fill="#000000" font-family="sans-serif" font-size="13" lengthAdjust="spacing" textLength="8" x="212.4854" y="187.8098">1</text></g><!--reverse link showpropDuration to showProposal--><g id="link_showpropDuration_showProposal"><path codeLine="74" d="M326.56,185.2069 C331.09,189.6469 335.62,194.0669 340,198.2969 C364.55,222.0169 392.55,248.3669 414.28,268.6769 " fill="none" id="showpropDuration-backto-showProposal" style="stroke:#181818;stroke-width:1.0;"/><polygon fill="#181818" points="322.77,181.4769,326.3798,190.6403,326.334,184.9837,331.9907,184.9379,322.77,181.4769" style="stroke:#181818;stroke-width:1.0;"/><text fill="#000000" font-family="sans-serif" font-size="13" lengthAdjust="spacing" textLength="8" x="330.6367" y="184.6165">1</text></g><!--reverse link showpropPlace to showProposal--><g id="link_showpropPlace_showProposal"><path codeLine="75" d="M421.8,203.6469 C428.34,225.8369 435.41,249.8569 440.96,268.6969 " fill="none" id="showpropPlace-backto-showProposal" style="stroke:#181818;stroke-width:1.0;"/><polygon fill="#181818" points="420.33,198.6469,419.0368,208.4105,421.7431,203.443,426.7106,206.1494,420.33,198.6469" style="stroke:#181818;stroke-width:1.0;"/><text fill="#000000" font-family="sans-serif" font-size="13" lengthAdjust="spacing" textLength="8" x="413.8713" y="218.5016">1</text></g><!--link showProposal to showpropDroneList--><g id="link_showProposal_showpropDroneList"><path codeLine="76" d="M510.62,303.7969 C528.04,303.7969 545.46,303.7969 562.88,303.7969 " fill="none" id="showProposal-to-showpropDroneList" style="stroke:#181818;stroke-width:1.0;"/><polygon fill="#181818" points="568.28,303.7969,559.28,299.7969,563.28,303.7969,559.28,307.7969,568.28,303.7969" style="stroke:#181818;stroke-width:1.0;"/><text fill="#000000" font-family="sans-serif" font-size="13" lengthAdjust="spacing" textLength="7" x="553.5802" y="300.1389">*</text></g><!--reverse link showpropDescription to showProposal--><g id="link_showpropDescription_showProposal"><path codeLine="77" d="M526.61,194.6869 C509.49,219.1669 489.85,247.2469 474.88,268.6469 " fill="none" id="showpropDescription-backto-showProposal" style="stroke:#181818;stroke-width:1.0;"/><polygon fill="#181818" points="529.55,190.4769,521.1226,195.5739,526.6913,194.5791,527.6861,200.1478,529.55,190.4769" style="stroke:#181818;stroke-width:1.0;"/><text fill="#000000" font-family="sans-serif" font-size="13" lengthAdjust="spacing" textLength="8" x="516.4955" y="210.1457">1</text></g><!--reverse link showpropVideo to showProposal--><g id="link_showpropVideo_showProposal"><path codeLine="78" d="M677.74,188.7269 C673.19,192.0969 668.58,195.3269 664,198.2969 C637.01,215.8269 563.62,250.8869 510.52,275.5469 " fill="none" id="showpropVideo-backto-showProposal" style="stroke:#181818;stroke-width:1.0;"/><polygon fill="#181818" points="681.91,185.5969,672.31,187.7969,677.91,188.5969,677.11,194.1969,681.91,185.5969" style="stroke:#181818;stroke-width:1.0;"/><text fill="#000000" font-family="sans-serif" font-size="13" lengthAdjust="spacing" textLength="8" x="666.0223" y="188.2118">1</text></g><!--reverse link showpropFigure to showProposal--><g id="link_showpropFigure_showProposal"><path codeLine="79" d="M824.95,186.2969 C818.15,190.7769 811.09,194.9069 804,198.2969 C699.66,248.2269 660.67,222.5369 551,259.2969 C537.72,263.7469 523.76,269.2669 510.62,274.8469 " fill="none" id="showpropFigure-backto-showProposal" style="stroke:#181818;stroke-width:1.0;"/><polygon fill="#181818" points="829.15,183.4569,819.4535,185.1825,825.0074,186.2567,823.9332,191.8106,829.15,183.4569" style="stroke:#181818;stroke-width:1.0;"/><text fill="#000000" font-family="sans-serif" font-size="13" lengthAdjust="spacing" textLength="7" x="814.1673" y="203.2049">*</text></g><!--link showpropDroneList to droneModel--><g id="link_showpropDroneList_droneModel"><path codeLine="82" d="M643,348.6069 C643,407.7269 643,512.1569 643,568.9069 " fill="none" id="showpropDroneList-to-droneModel" style="stroke:#181818;stroke-width:1.0;"/><polygon fill="#181818" points="643,573.9169,647,564.9169,643,568.9169,639,564.9169,643,573.9169" style="stroke:#181818;stroke-width:1.0;"/><text fill="#000000" font-family="sans-serif" font-size="13" lengthAdjust="spacing" textLength="35" x="644" y="440.3638">has a</text><text fill="#000000" font-family="sans-serif" font-size="13" lengthAdjust="spacing" textLength="8" x="634.4125" y="368.3769">1</text><text fill="#000000" font-family="sans-serif" font-size="13" lengthAdjust="spacing" textLength="8" x="634.2875" y="563.3367">1</text></g><!--link showpropDroneList to figure--><g id="link_showpropDroneList_figure"><path codeLine="83" d="M673.02,348.6069 C713.7,407.9569 785.69,512.9969 824.47,569.5969 " fill="none" id="showpropDroneList-to-figure" style="stroke:#181818;stroke-width:1.0;"/><polygon fill="#181818" points="827.44,573.9169,825.6603,564.2302,824.6171,569.79,819.0573,568.7468,827.44,573.9169" style="stroke:#181818;stroke-width:1.0;"/><text fill="#000000" font-family="sans-serif" font-size="13" lengthAdjust="spacing" textLength="35" x="739" y="440.3638">has a</text><text fill="#000000" font-family="sans-serif" font-size="13" lengthAdjust="spacing" textLength="8" x="668.8417" y="368.3769">1</text><text fill="#000000" font-family="sans-serif" font-size="13" lengthAdjust="spacing" textLength="8" x="814.5309" y="563.3367">1</text></g><!--link showpropFigure to figure--><g id="link_showpropFigure_figure"><path codeLine="84" d="M877.3,183.4469 C871.68,274.2069 858.82,482.0269 853.44,568.9469 " fill="none" id="showpropFigure-to-figure" style="stroke:#181818;stroke-width:1.0;"/><polygon fill="#181818" points="853.12,573.9969,857.6783,565.2664,853.4346,569.0068,849.6941,564.7631,853.12,573.9969" style="stroke:#181818;stroke-width:1.0;"/><text fill="#000000" font-family="sans-serif" font-size="13" lengthAdjust="spacing" textLength="35" x="866" y="393.3638">has a</text><text fill="#000000" font-family="sans-serif" font-size="13" lengthAdjust="spacing" textLength="8" x="868.3159" y="203.1934">1</text><text fill="#000000" font-family="sans-serif" font-size="13" lengthAdjust="spacing" textLength="8" x="844.7734" y="563.1632">1</text></g><!--SRC=[ZLLTRvim57tdLrWyCkKXsjjK8MsZtKjMLKlMfqcH1tV4gh6HRTf5rVxxhWq4sw45aeTmVEuvzlrm33CSIFfp_t6x9OLiA1Fakwo0fqboOXMGagcIWqxq4nCjLRGX0fV9QqBm-I9L1Ughv5AHbnCpqAEqVAgLx4Jbh_nB4XUPueTgyeVLdOAZXNej1QMXekOn0_6UO1yGXfapIRFipgrccKSbDpUVwrf1JGtyaDBaEIAtBYBFNz5_L74_y1s_LwwLaW9S1YRdoRMuh0xE4tsL-wWqwVmIMNPF6_3rx3i6FrBUWPCfGBDQKCEaGAtBEJuGWSpnD3CxBVOxNnTVGzdzBfIhD3y-WzBe4w7wB0pzwrjv9zziSf9kqsdpxnBGTJRp-YHV7fHifQP3xgCZxJt2S2m_Ph40WLmV1PNDVu4Hdc2BInOASuL0b2ngPdFlAnzO4ojRA52sGAXiMBEeN7JAzKEyxm5USAW6sfBB0wTbV0271VhVWCjofZivOgQhm8Uag2SiSlOBRDs36H_jxyPPlvJMatVtqNtN_0Qrnc0QmyEv1Htdqgxkc3PlcBbkTe6hl42NYhLpDPjMmfQJPTUWNEXgeuxjE2ULBDUOF-9LBYDRXmM63WdTdYrqx1JtNOAfstJ3SFkZiu9s69jyGStlrFUfhZ5dUChoilIwhclifzgiOBi4liNpTj3tiBq5htlDwcs22xE_Gp-H4nQFBaKCVuKnUvYQdZh7_0y0]--></g></svg>